<svg xmlns="http://www.w3.org/2000/svg" width="282.114" height="287.248" viewBox="0 0 282.114 287.248">
  <path id="Subtraction_2" data-name="Subtraction 2" d="M-1880.365,447.323h0a138.745,138.745,0,0,1-32.878-12.626,143.349,143.349,0,0,1-29.811-21.43,147.39,147.39,0,0,1-20.5-23.674,148.447,148.447,0,0,1-14.736-26.762,41.2,41.2,0,0,0,14.629,5.4,43.6,43.6,0,0,0,7.154.591,45.555,45.555,0,0,0,8.49-.809,48.388,48.388,0,0,0,15.2-5.7,52.44,52.44,0,0,0,13.306-11.037,54.73,54.73,0,0,0,5.864-8.149,54,54,0,0,0,4.157-8.806,53.178,53.178,0,0,0,2.453-9.19,51.628,51.628,0,0,0,.752-9.3,49.278,49.278,0,0,0-.945-9.132,46.362,46.362,0,0,0-2.642-8.693,43.789,43.789,0,0,0-4.333-7.978,42.467,42.467,0,0,0-6.023-6.989,41.491,41.491,0,0,0-7.341-5.474,41.1,41.1,0,0,0-8.112-3.63,42.362,42.362,0,0,0-8.623-1.813,43.88,43.88,0,0,0-4.508-.232c-1.447,0-2.913.072-4.359.213a46.623,46.623,0,0,0-8.849,1.747,48.936,48.936,0,0,0-8.567,3.487,51.143,51.143,0,0,0-8.02,5.2,53.7,53.7,0,0,0-7.211,6.892,54.961,54.961,0,0,0-4.185,5.475,151.64,151.64,0,0,1,3.253-23.686,148.97,148.97,0,0,1,7.031-23,145.634,145.634,0,0,1,25.5-41.921,140.637,140.637,0,0,1,37.846-30.8,137.783,137.783,0,0,1,21.508-9.647,137.58,137.58,0,0,1,22.561-5.778,53.808,53.808,0,0,0-6.707,6.489,54.733,54.733,0,0,0-5.863,8.148,54.025,54.025,0,0,0-4.157,8.807,53.176,53.176,0,0,0-2.453,9.189,51.66,51.66,0,0,0-.752,9.3,49.293,49.293,0,0,0,.945,9.132,46.4,46.4,0,0,0,2.641,8.693,43.75,43.75,0,0,0,4.333,7.978,42.538,42.538,0,0,0,6.022,6.99,41.584,41.584,0,0,0,7.34,5.473,41.112,41.112,0,0,0,8.114,3.63,42.27,42.27,0,0,0,8.621,1.812,43.916,43.916,0,0,0,4.512.232c1.445,0,2.91-.071,4.355-.212a46.691,46.691,0,0,0,8.849-1.747,48.939,48.939,0,0,0,8.567-3.487,51.08,51.08,0,0,0,8.02-5.2,53.662,53.662,0,0,0,7.211-6.892,54.131,54.131,0,0,0,9.521-15.642,53.465,53.465,0,0,0,2.561-8.475,52.087,52.087,0,0,0,1.1-8.621,46.1,46.1,0,0,0-10.185-31.561,139.175,139.175,0,0,1,28.975,12.526,143.929,143.929,0,0,1,26.394,19.531,147.206,147.206,0,0,1,24.258,29.363,149.225,149.225,0,0,1,15.644,33.635,42.957,42.957,0,0,0-11-1.419c-.526,0-1.06.01-1.586.028a46.371,46.371,0,0,0-12.718,2.274,49.581,49.581,0,0,0-12.065,5.864,52.979,52.979,0,0,0-10.633,9.375,54.677,54.677,0,0,0-5.863,8.149,53.975,53.975,0,0,0-4.157,8.806,53.088,53.088,0,0,0-2.454,9.189,51.724,51.724,0,0,0-.752,9.3,49.285,49.285,0,0,0,.946,9.132,46.432,46.432,0,0,0,2.641,8.693,43.854,43.854,0,0,0,4.333,7.979,42.5,42.5,0,0,0,6.023,6.989,41.234,41.234,0,0,0,10.712,7.241,41.641,41.641,0,0,0,12.054,3.517,43.744,43.744,0,0,0,5.823.389,45.367,45.367,0,0,0,6.809-.519,47.681,47.681,0,0,0,12.447-3.705,147.232,147.232,0,0,1-11.726,27.552,145.977,145.977,0,0,1-17.577,25.135,142.754,142.754,0,0,1-22.747,21.07,138.423,138.423,0,0,1-25.774,15.075,50.74,50.74,0,0,0,.63-25.692,45.167,45.167,0,0,0-4.646-11.766,42.561,42.561,0,0,0-7.943-10.05,41.631,41.631,0,0,0-7.34-5.474,41.117,41.117,0,0,0-8.114-3.63,42.277,42.277,0,0,0-8.622-1.812,43.931,43.931,0,0,0-4.512-.232c-1.445,0-2.91.071-4.355.212a46.793,46.793,0,0,0-8.849,1.747,49,49,0,0,0-8.566,3.487,51.15,51.15,0,0,0-8.02,5.2,53.637,53.637,0,0,0-7.211,6.892,54.457,54.457,0,0,0-7.644,11.432,53.447,53.447,0,0,0-4.4,12.485,49.981,49.981,0,0,0,.919,25.246Zm43.428-195.637c-1.582,0-3.182.068-4.754.2a58.21,58.21,0,0,0-11.122,2.05,60.189,60.189,0,0,0-10.741,4.243,62.2,62.2,0,0,0-10.026,6.407,65.069,65.069,0,0,0-8.98,8.543,66.33,66.33,0,0,0-7.263,10.144,65.739,65.739,0,0,0-5.1,11,65.4,65.4,0,0,0-2.95,11.507,64.342,64.342,0,0,0-.806,11.672,62.223,62.223,0,0,0,1.331,11.491,59.409,59.409,0,0,0,3.46,10.967,56.75,56.75,0,0,0,5.582,10.1,55.445,55.445,0,0,0,7.694,8.882,54.269,54.269,0,0,0,9.332,7,53.363,53.363,0,0,0,10.278,4.693A54.192,54.192,0,0,0-1850.116,373a55.706,55.706,0,0,0,6.42.37c1.579,0,3.178-.067,4.754-.2a58.213,58.213,0,0,0,11.122-2.05,60.087,60.087,0,0,0,10.74-4.243,62.227,62.227,0,0,0,10.027-6.406,65.1,65.1,0,0,0,8.98-8.544,66.375,66.375,0,0,0,7.263-10.143,65.879,65.879,0,0,0,5.1-11,65.5,65.5,0,0,0,2.95-11.508,64.348,64.348,0,0,0,.807-11.672,62.315,62.315,0,0,0-1.331-11.492,59.4,59.4,0,0,0-3.46-10.966,56.771,56.771,0,0,0-5.582-10.1,55.454,55.454,0,0,0-7.695-8.882,54.225,54.225,0,0,0-9.332-7,53.246,53.246,0,0,0-10.277-4.694,54.257,54.257,0,0,0-10.892-2.418A55.757,55.757,0,0,0-1836.937,251.687Zm4.915,194.69h0a19.338,19.338,0,0,1-13.183-5.324,20.7,20.7,0,0,1-4.6-6.273,20.462,20.462,0,0,1-1.934-7.216,19.315,19.315,0,0,1,.8-7.283,17.919,17.919,0,0,1,3.6-6.474,17.163,17.163,0,0,1,6.043-4.475,17.551,17.551,0,0,1,7.152-1.5,19.343,19.343,0,0,1,13.187,5.325,20.7,20.7,0,0,1,4.6,6.273,20.461,20.461,0,0,1,1.935,7.216,19.313,19.313,0,0,1-.8,7.283,17.917,17.917,0,0,1-3.6,6.474,17.167,17.167,0,0,1-6.043,4.474A17.55,17.55,0,0,1-1832.022,446.377Zm-44.039-98.743a2.07,2.07,0,0,1-1.047-.364,4.553,4.553,0,0,1-1-.819.982.982,0,0,1-.319-.865c.06-.271.4-.47,1-.591a20.86,20.86,0,0,0,5.369-1.82c2.06-.97,4.081-2.042,6.006-3.185s3.663-2.266,5.142-3.322a27.771,27.771,0,0,0,2.866-2.229c.3-.3.623-1.664.955-4.049s.654-5.327.956-8.736c.3-3.427.563-7.193.773-11.193s.319-7.857.319-11.42c0-7.38-.061-13.472-.182-18.109-.121-4.654-.3-8.343-.546-10.966a24.247,24.247,0,0,0-.91-5.414c-.362-.966-.821-1.456-1.364-1.456-.182,0-.549.015-1.093.046s-1.145.045-1.774.045-1.2-.015-1.684-.045-.728-.107-.728-.228v-1.047c0-.513.123-.835.365-.956a13.364,13.364,0,0,1,2-.091c1.019,0,2.229.031,3.595.091,1.334.06,2.758.106,4.232.137,1.45.03,2.8.046,4,.046h2.957c.64,0,.992-.044,1.045-.131a.05.05,0,0,0,0-.051,6.954,6.954,0,0,0,1.775-.591c.941-.394,2.135-.838,3.549-1.319a43.814,43.814,0,0,1,4.914-1.319,27.794,27.794,0,0,1,5.779-.591,39.494,39.494,0,0,1,10.147,1.194,22.743,22.743,0,0,1,7.69,3.583,15.657,15.657,0,0,1,4.846,5.676,16.8,16.8,0,0,1,1.615,7.474,27.936,27.936,0,0,1-2.822,12.695,30.83,30.83,0,0,1-7.416,9.554,33.083,33.083,0,0,1-10.374,6.052,34.252,34.252,0,0,1-11.694,2.093c-1.2,0-2.532-.061-3.958-.182a10.219,10.219,0,0,1-3.139-.637v5.915c0,2.443.031,4.892.091,7.28.06,2.411.182,4.631.364,6.6a13.149,13.149,0,0,0,.728,3.868,1.36,1.36,0,0,0,1.138.773,9.2,9.2,0,0,0,1.424.1c.172,0,.352,0,.533-.011.716-.029,1.467-.09,2.229-.182a16.9,16.9,0,0,1,1.957-.137.56.56,0,0,1,.364.41,2.648,2.648,0,0,1,.091.728,2.648,2.648,0,0,1-.091.728.37.37,0,0,1-.364.319,22.324,22.324,0,0,0-3.958.409c-1.472.27-3.064.637-4.732,1.092s-3.346.99-5,1.593-3.262,1.244-4.778,1.911a45.024,45.024,0,0,0-5.459,2.866l-4.671,2.79-1.881,1.123c-2.18,1.3-4.2,2.45-6.007,3.413A10.245,10.245,0,0,1-1876.061,347.634Zm43.771-87.815a14.571,14.571,0,0,0-3.776.5,21.848,21.848,0,0,0-3.367,1.184,11.459,11.459,0,0,0-2.457,1.455,3.178,3.178,0,0,0-1.138,1.411,14.753,14.753,0,0,0-.319,2.73c-.091,1.454-.182,3.245-.273,5.324-.088,2.035-.18,4.362-.274,6.916-.09,2.493-.151,4.989-.182,7.417-.027,2.225-.058,4.536-.091,6.871-.03,2.1-.045,3.865-.045,5.233.3.846,1.374,1.657,3.184,2.411a18.766,18.766,0,0,0,7.1,1.138,17.667,17.667,0,0,0,7.326-1.5,15.543,15.543,0,0,0,5.733-4.5,21.676,21.676,0,0,0,3.73-7.417,35.985,35.985,0,0,0,1.319-10.237,22.746,22.746,0,0,0-1.274-7.781,17.9,17.9,0,0,0-3.5-5.961,15.935,15.935,0,0,0-5.233-3.821A15.5,15.5,0,0,0-1832.29,259.819Zm-116.657,77.505A19.343,19.343,0,0,1-1962.135,332a20.706,20.706,0,0,1-4.6-6.273,20.464,20.464,0,0,1-1.935-7.216,19.315,19.315,0,0,1,.8-7.283,17.922,17.922,0,0,1,3.6-6.474,17.16,17.16,0,0,1,6.042-4.475,17.551,17.551,0,0,1,7.152-1.5,19.346,19.346,0,0,1,13.188,5.325,20.706,20.706,0,0,1,4.6,6.273,20.464,20.464,0,0,1,1.935,7.216,19.319,19.319,0,0,1-.8,7.283,17.919,17.919,0,0,1-3.6,6.473,17.161,17.161,0,0,1-6.043,4.475A17.553,17.553,0,0,1-1948.947,337.325Zm223.41-13.447a19.343,19.343,0,0,1-13.188-5.324,20.706,20.706,0,0,1-4.6-6.272,20.463,20.463,0,0,1-1.934-7.216,19.314,19.314,0,0,1,.8-7.283,17.918,17.918,0,0,1,3.6-6.473,17.162,17.162,0,0,1,6.043-4.475,17.551,17.551,0,0,1,7.152-1.5,19.344,19.344,0,0,1,13.187,5.325,20.7,20.7,0,0,1,4.6,6.273,20.465,20.465,0,0,1,1.935,7.216,19.321,19.321,0,0,1-.8,7.283,17.919,17.919,0,0,1-3.6,6.474,17.165,17.165,0,0,1-6.042,4.474A17.551,17.551,0,0,1-1725.538,323.878Zm-116.926-109.052h0a19.343,19.343,0,0,1-13.184-5.324,20.7,20.7,0,0,1-4.6-6.272,20.462,20.462,0,0,1-1.935-7.216,19.315,19.315,0,0,1,.8-7.283,17.919,17.919,0,0,1,3.6-6.474,17.161,17.161,0,0,1,6.042-4.475,17.55,17.55,0,0,1,7.152-1.5,19.349,19.349,0,0,1,13.188,5.324,20.706,20.706,0,0,1,4.6,6.273,20.464,20.464,0,0,1,1.934,7.216,19.311,19.311,0,0,1-.8,7.283,17.919,17.919,0,0,1-3.6,6.474,17.163,17.163,0,0,1-6.042,4.474A17.552,17.552,0,0,1-1842.464,214.826Z" transform="translate(1990 -160.076)" fill="#02020d"/>
</svg>

