<svg xmlns="http://www.w3.org/2000/svg" width="671.966" height="287.248" viewBox="0 0 671.966 287.248">
  <path id="Union_3" data-name="Union 3" d="M-1913.244,434.7a143.357,143.357,0,0,1-29.811-21.43,147.391,147.391,0,0,1-20.5-23.674,148.449,148.449,0,0,1-14.736-26.762,41.2,41.2,0,0,0,14.629,5.4,44.381,44.381,0,0,0,15.644-.219,48.385,48.385,0,0,0,15.2-5.7,52.439,52.439,0,0,0,13.306-11.037,54.733,54.733,0,0,0,5.864-8.149,54,54,0,0,0,4.157-8.806,53.181,53.181,0,0,0,2.453-9.19,51.636,51.636,0,0,0,.752-9.3,49.274,49.274,0,0,0-.945-9.132,46.374,46.374,0,0,0-2.641-8.693,43.815,43.815,0,0,0-4.333-7.978,42.463,42.463,0,0,0-6.023-6.989,41.482,41.482,0,0,0-7.34-5.474,41.1,41.1,0,0,0-8.113-3.63,42.353,42.353,0,0,0-8.623-1.813,44.356,44.356,0,0,0-8.867-.019,46.625,46.625,0,0,0-8.849,1.747,48.937,48.937,0,0,0-8.567,3.487,51.135,51.135,0,0,0-8.02,5.2,53.708,53.708,0,0,0-7.211,6.892,54.942,54.942,0,0,0-4.185,5.475,151.629,151.629,0,0,1,3.253-23.686,148.98,148.98,0,0,1,7.031-23,145.637,145.637,0,0,1,25.5-41.921,140.635,140.635,0,0,1,37.846-30.8,137.775,137.775,0,0,1,21.508-9.647,137.579,137.579,0,0,1,22.561-5.778,53.791,53.791,0,0,0-6.707,6.489,54.732,54.732,0,0,0-5.863,8.148,54.037,54.037,0,0,0-4.157,8.806,53.194,53.194,0,0,0-2.453,9.189,51.652,51.652,0,0,0-.752,9.3,49.289,49.289,0,0,0,.945,9.132,46.394,46.394,0,0,0,2.641,8.693,43.758,43.758,0,0,0,4.333,7.978,42.543,42.543,0,0,0,6.022,6.99,41.6,41.6,0,0,0,7.34,5.473,41.11,41.11,0,0,0,8.114,3.63,42.273,42.273,0,0,0,8.621,1.812,44.431,44.431,0,0,0,8.868.02,46.7,46.7,0,0,0,8.849-1.747,48.942,48.942,0,0,0,8.567-3.488,51.077,51.077,0,0,0,8.02-5.2,53.659,53.659,0,0,0,7.211-6.892,54.129,54.129,0,0,0,9.521-15.642,53.463,53.463,0,0,0,2.561-8.475,52.1,52.1,0,0,0,1.1-8.621,46.1,46.1,0,0,0-10.185-31.561,139.172,139.172,0,0,1,28.975,12.526,143.927,143.927,0,0,1,26.393,19.531,147.205,147.205,0,0,1,24.259,29.363,149.229,149.229,0,0,1,15.644,33.635,43.1,43.1,0,0,0-12.587-1.391,46.369,46.369,0,0,0-12.718,2.274,49.581,49.581,0,0,0-12.065,5.864,52.977,52.977,0,0,0-10.633,9.375,54.671,54.671,0,0,0-5.863,8.149,53.994,53.994,0,0,0-4.157,8.806,53.109,53.109,0,0,0-2.453,9.189,51.719,51.719,0,0,0-.752,9.3,49.29,49.29,0,0,0,.946,9.132,46.435,46.435,0,0,0,2.641,8.693,43.857,43.857,0,0,0,4.333,7.979,42.505,42.505,0,0,0,6.023,6.989,41.234,41.234,0,0,0,10.712,7.241,41.639,41.639,0,0,0,12.054,3.517,44.439,44.439,0,0,0,12.632-.13,47.679,47.679,0,0,0,12.447-3.705,147.236,147.236,0,0,1-11.726,27.552,145.979,145.979,0,0,1-17.577,25.135,142.755,142.755,0,0,1-22.747,21.07,138.422,138.422,0,0,1-25.774,15.075,50.738,50.738,0,0,0,.63-25.692,45.161,45.161,0,0,0-4.646-11.766,42.567,42.567,0,0,0-7.943-10.05,41.637,41.637,0,0,0-7.34-5.474,41.114,41.114,0,0,0-8.114-3.63,42.283,42.283,0,0,0-8.622-1.812,44.432,44.432,0,0,0-8.868-.02,46.783,46.783,0,0,0-8.849,1.747,49,49,0,0,0-8.566,3.487,51.157,51.157,0,0,0-8.02,5.2,53.643,53.643,0,0,0-7.211,6.892,54.453,54.453,0,0,0-7.644,11.432,53.449,53.449,0,0,0-4.4,12.485,49.983,49.983,0,0,0,.92,25.248A138.741,138.741,0,0,1-1913.244,434.7Zm71.554-182.81a58.213,58.213,0,0,0-11.122,2.05,60.2,60.2,0,0,0-10.741,4.243,62.2,62.2,0,0,0-10.026,6.407,65.072,65.072,0,0,0-8.98,8.543,66.338,66.338,0,0,0-7.263,10.144,65.737,65.737,0,0,0-5.1,11,65.4,65.4,0,0,0-2.95,11.507,64.35,64.35,0,0,0-.806,11.672,62.222,62.222,0,0,0,1.331,11.491,59.411,59.411,0,0,0,3.46,10.967,56.748,56.748,0,0,0,5.582,10.1,55.458,55.458,0,0,0,7.694,8.882,54.274,54.274,0,0,0,9.332,7,53.367,53.367,0,0,0,10.278,4.693A54.2,54.2,0,0,0-1850.116,373a56.074,56.074,0,0,0,11.173.17,58.215,58.215,0,0,0,11.122-2.05,60.1,60.1,0,0,0,10.74-4.243,62.225,62.225,0,0,0,10.027-6.406,65.081,65.081,0,0,0,8.98-8.544,66.376,66.376,0,0,0,7.263-10.143,65.871,65.871,0,0,0,5.1-11,65.5,65.5,0,0,0,2.95-11.508,64.361,64.361,0,0,0,.807-11.672,62.324,62.324,0,0,0-1.331-11.492,59.4,59.4,0,0,0-3.46-10.966,56.77,56.77,0,0,0-5.582-10.1,55.463,55.463,0,0,0-7.695-8.882,54.222,54.222,0,0,0-9.332-7,53.251,53.251,0,0,0-10.277-4.694,54.256,54.256,0,0,0-10.892-2.418,55.584,55.584,0,0,0-6.419-.37Q-1839.313,251.687-1841.691,251.888Zm-3.518,189.165c-7.876-7.345-8.832-19.543-2.137-27.246s18.507-7.992,26.382-.647,8.833,19.543,2.137,27.246a17.332,17.332,0,0,1-13.195,5.971A19.351,19.351,0,0,1-1845.209,441.052Zm459.657-48.178q-6.211-.875-11.466-2.07a92.733,92.733,0,0,1-9.236-2.548,50.685,50.685,0,0,1-5.891-2.309q1.432-2.549,2.946-5.414t2.866-6.051a46.17,46.17,0,0,0,2.229-6.609,29.13,29.13,0,0,0,.876-7.246q0-5.573-1.672-8.439t-3.9-2.866a3.108,3.108,0,0,0-2.229.637,18.518,18.518,0,0,0-1.592,1.911l-.8-.637a2.618,2.618,0,0,1-.637-.079q-.317-.08-.477-.558a5.633,5.633,0,0,1,.4-1.114,8.03,8.03,0,0,1,1.354-2.07,9.925,9.925,0,0,1,2.389-1.991,6.6,6.6,0,0,1,3.5-.876,6.171,6.171,0,0,1,4.14,1.354,9.352,9.352,0,0,1,2.548,3.742,20.4,20.4,0,0,1,1.273,5.494,64.859,64.859,0,0,1,.319,6.609,16.092,16.092,0,0,0,3.583,7.8,35.363,35.363,0,0,0,7.644,7.166,45.577,45.577,0,0,0,9.952,5.254,32.164,32.164,0,0,0,10.51,2.229q12.1.319,17.676-5.175a18.935,18.935,0,0,0,5.573-14.093q0-7.166-2.707-11.624a20.805,20.805,0,0,0-7.245-7.166,44.053,44.053,0,0,0-10.271-4.379q-5.733-1.671-11.7-3.105t-11.7-3.184a38.889,38.889,0,0,1-10.271-4.777,22.475,22.475,0,0,1-7.245-7.883q-2.708-4.856-2.707-12.5a31.06,31.06,0,0,1,3.264-13.934,35.378,35.378,0,0,1,9.316-11.624,45.948,45.948,0,0,1,14.729-7.962,61.016,61.016,0,0,1,19.666-2.946,68.2,68.2,0,0,1,17.995,2.07q7.484,2.071,11.465,3.185.8-1.274,1.751-2.946a21.5,21.5,0,0,1,2.15-3.106,14.4,14.4,0,0,1,2.628-2.468,5.557,5.557,0,0,1,3.344-1.035,3.121,3.121,0,0,1,2.309.876,2.47,2.47,0,0,1,.876,1.672,2.48,2.48,0,0,1-1.274,1.273q-.955.478-1.751.956-4.937,2.547-8.2,11.863T-1333,309.034a1.144,1.144,0,0,1-.8.478,5.915,5.915,0,0,1-1.433.159,6.4,6.4,0,0,1-1.751-.159,28.894,28.894,0,0,0-2.867-9.714,31.5,31.5,0,0,0-6.609-9,33,33,0,0,0-10.351-6.608,36.011,36.011,0,0,0-13.933-2.548,25.636,25.636,0,0,0-8.6,1.354,19.512,19.512,0,0,0-6.449,3.662,15.962,15.962,0,0,0-3.981,5.176,13.317,13.317,0,0,0-1.354,5.732q0,6.688,5.414,12.182t16.4,8.2q6.847,1.751,14.252,3.9a56,56,0,0,1,13.456,5.812,33.454,33.454,0,0,1,10.031,9.236q3.981,5.573,3.982,14.172a35.393,35.393,0,0,1-3.9,16.163,47.715,47.715,0,0,1-10.271,13.615,50.824,50.824,0,0,1-14.491,9.4,41.447,41.447,0,0,1-16.562,3.5A91.089,91.089,0,0,1-1385.552,392.874Zm-491.556-45.6a4.53,4.53,0,0,1-1-.819.978.978,0,0,1-.319-.865q.09-.409,1-.591a20.763,20.763,0,0,0,5.369-1.82q3.093-1.457,6.006-3.185t5.142-3.322a27.614,27.614,0,0,0,2.866-2.229q.455-.455.955-4.049t.956-8.736q.455-5.141.773-11.193t.319-11.42q0-11.1-.182-18.109t-.546-10.966a24.127,24.127,0,0,0-.91-5.414q-.545-1.457-1.364-1.456c-.183,0-.546.015-1.093.046s-1.138.045-1.774.045-1.2-.015-1.684-.045-.728-.106-.728-.228v-1.047q0-.774.365-.956a13.31,13.31,0,0,1,2-.091q1.547,0,3.595.091t4.232.137q2.183.046,4,.046h2.957q1.137,0,1.046-.183a6.877,6.877,0,0,0,1.775-.591q1.411-.591,3.549-1.319a43.594,43.594,0,0,1,4.914-1.319,27.672,27.672,0,0,1,5.779-.591q11.375,0,17.836,4.777a15.456,15.456,0,0,1,6.461,13.15,27.811,27.811,0,0,1-2.822,12.695,30.691,30.691,0,0,1-7.416,9.554,32.931,32.931,0,0,1-10.374,6.052,34.094,34.094,0,0,1-11.694,2.093q-1.82,0-3.958-.182a10.172,10.172,0,0,1-3.139-.637v5.915q0,3.64.091,7.28t.364,6.6a13.088,13.088,0,0,0,.728,3.868,1.354,1.354,0,0,0,1.138.773,9.951,9.951,0,0,0,1.957.091q1.092-.045,2.229-.182a16.8,16.8,0,0,1,1.957-.137.558.558,0,0,1,.364.41,2.639,2.639,0,0,1,.091.728,2.634,2.634,0,0,1-.091.728.368.368,0,0,1-.364.319,22.216,22.216,0,0,0-3.958.409q-2.23.409-4.732,1.092t-5,1.593q-2.5.91-4.778,1.911a44.831,44.831,0,0,0-5.459,2.867l-6.552,3.913q-3.276,1.956-6.007,3.413a10.192,10.192,0,0,1-3.821,1.455A2.062,2.062,0,0,1-1877.108,347.27Zm41.041-86.951a21.753,21.753,0,0,0-3.367,1.184,11.407,11.407,0,0,0-2.457,1.455,3.164,3.164,0,0,0-1.138,1.411,14.676,14.676,0,0,0-.319,2.73q-.136,2.184-.273,5.324t-.274,6.916q-.136,3.777-.182,7.417t-.091,6.871q-.046,3.231-.045,5.233.455,1.273,3.184,2.411a18.678,18.678,0,0,0,7.1,1.138,17.585,17.585,0,0,0,7.326-1.5,15.474,15.474,0,0,0,5.733-4.5,21.575,21.575,0,0,0,3.73-7.417,35.818,35.818,0,0,0,1.319-10.238,22.644,22.644,0,0,0-1.274-7.78,17.819,17.819,0,0,0-3.5-5.961,15.863,15.863,0,0,0-5.233-3.821,15.428,15.428,0,0,0-6.461-1.365A14.506,14.506,0,0,0-1836.067,260.32ZM-1962.135,332c-7.875-7.345-8.832-19.543-2.137-27.246s18.508-7.991,26.383-.646,8.832,19.543,2.137,27.245a17.33,17.33,0,0,1-13.195,5.971A19.355,19.355,0,0,1-1962.135,332Zm255.479-7.205a5.4,5.4,0,0,1-1.2-.981,1.174,1.174,0,0,1-.382-1.035q.109-.491,1.2-.709a24.819,24.819,0,0,0,6.431-2.18q3.706-1.744,7.194-3.815t6.159-3.978a33.134,33.134,0,0,0,3.434-2.67q.545-.545,1.145-4.851t1.144-10.464q.545-6.157.927-13.406t.382-13.68q0-13.3-.219-21.691t-.653-13.135a29.018,29.018,0,0,0-1.09-6.485q-.655-1.744-1.635-1.744-.327,0-1.308.055t-2.126.055q-1.145,0-2.017-.055t-.872-.273V222.5q0-.926.437-1.144a15.857,15.857,0,0,1,2.4-.109q1.854,0,4.306.109t5.069.163q2.616.055,4.8.055h3.542q1.362,0,1.254-.218a8.258,8.258,0,0,0,2.125-.708q1.69-.709,4.252-1.581a52.256,52.256,0,0,1,5.886-1.58,33.171,33.171,0,0,1,6.921-.708q13.626,0,21.364,5.722t7.739,15.751a33.315,33.315,0,0,1-3.38,15.206,36.782,36.782,0,0,1-8.883,11.445,39.465,39.465,0,0,1-12.426,7.249,40.854,40.854,0,0,1-14.006,2.507q-2.18,0-4.742-.218a12.189,12.189,0,0,1-3.76-.763v7.085q0,4.361.109,8.72t.436,7.9a15.721,15.721,0,0,0,.872,4.632,1.622,1.622,0,0,0,1.363.926,11.894,11.894,0,0,0,2.344.11q1.308-.055,2.67-.219a20.091,20.091,0,0,1,2.344-.163.667.667,0,0,1,.437.491,3.2,3.2,0,0,1,.109.872,3.2,3.2,0,0,1-.109.871.442.442,0,0,1-.437.382,26.614,26.614,0,0,0-4.741.491q-2.67.491-5.668,1.309t-5.995,1.907q-3,1.091-5.722,2.289a53.881,53.881,0,0,0-6.54,3.434l-7.848,4.687q-3.924,2.344-7.194,4.088t-4.578,1.744A2.475,2.475,0,0,1-1706.656,324.795Zm49.159-104.149a26.036,26.036,0,0,0-4.033,1.417,13.675,13.675,0,0,0-2.943,1.744,3.79,3.79,0,0,0-1.363,1.689,17.644,17.644,0,0,0-.382,3.27q-.163,2.616-.327,6.376t-.327,8.285q-.163,4.524-.218,8.883t-.11,8.23q-.054,3.87-.054,6.268.545,1.525,3.815,2.889a22.379,22.379,0,0,0,8.5,1.362,21.06,21.06,0,0,0,8.775-1.8,18.52,18.52,0,0,0,6.867-5.4,25.829,25.829,0,0,0,4.469-8.883,42.923,42.923,0,0,0,1.581-12.262,27.109,27.109,0,0,0-1.526-9.32,21.321,21.321,0,0,0-4.2-7.14,18.987,18.987,0,0,0-6.268-4.578,18.479,18.479,0,0,0-7.739-1.635A17.394,17.394,0,0,0-1657.5,220.646Zm-81.228,97.907c-7.875-7.345-8.832-19.543-2.137-27.245s18.507-7.992,26.382-.647,8.832,19.543,2.137,27.246a17.33,17.33,0,0,1-13.194,5.971A19.355,19.355,0,0,1-1738.725,318.553Zm151.7-16.188q-.274-.055-.274-.495a.743.743,0,0,1,.44-.715,5.159,5.159,0,0,1-.606-.385,2.506,2.506,0,0,0-.77-.385q-.991-.165-2.035-.33t-2.282-.247q-1.238-.082-2.777-.137t-3.465-.056q-4.456,0-7.563.247t-5.252.523q-2.145.275-3.521.523a13.27,13.27,0,0,1-2.255.247q-.77,0-.77-.661a2.336,2.336,0,0,1,.166-.824q.165-.44.77-.385a9.785,9.785,0,0,0,1.733-.055q1.073-.111,2.146-.33t1.869-.467a2.15,2.15,0,0,0,.963-.468,8.952,8.952,0,0,0,.467-2.09q.248-1.65.413-4.153t.275-5.693q.111-3.19.11-6.765,0-4.84-.082-7.975t-.193-5a24.094,24.094,0,0,0-.275-2.75,8.49,8.49,0,0,0-.329-1.32l-3.96-.22a4.13,4.13,0,0,1-1.787-.3.673.673,0,0,1-.358-.522,2.013,2.013,0,0,1,.11-.688c.074-.2.275-.321.606-.357q.6.054,1.842.193t3.327.247h3.3q2.419-.055,4.51-.275t3.74-.5q1.65-.275,2.75-.55a8.429,8.429,0,0,0,1.54-.495h.055a.111.111,0,0,0,.083-.028.113.113,0,0,1,.083-.027q.549,0,.55,1.155,0,.5-1.018.825a18.975,18.975,0,0,1-2.337.577q-1.32.248-2.585.468a5.344,5.344,0,0,0-1.706.495,9.691,9.691,0,0,0-.577,3q-.248,2.448-.385,5.775t-.221,7.068q-.082,3.74-.082,6.875,0,5.06.138,8.194t.522,3.52a2.192,2.192,0,0,0,.6.056,10.159,10.159,0,0,0,1.183-.083q.687-.082,1.4-.165t1.4-.193q.687-.111,1.183-.166,1.265-.165,2.723-.412t2.887-.6a16.262,16.262,0,0,0,2.668-.908,7.531,7.531,0,0,0,2.118-1.374c.036-.074.064-.1.082-.083s.046.009.083-.028a.523.523,0,0,1,.495-.165.775.775,0,0,1,.467.3,1.252,1.252,0,0,1,.248.55.443.443,0,0,1-.166.468,4.226,4.226,0,0,0-.962,1.155,13.873,13.873,0,0,0-.852,1.65q-.386.88-.661,1.678a7.229,7.229,0,0,0-.33,1.183q.113.071.231.156a.312.312,0,0,1,.265-.266,13.742,13.742,0,0,0,1.595-.825,5.654,5.654,0,0,0,1.952-2.228,44.145,44.145,0,0,0,1.953-4.262,49.228,49.228,0,0,0,1.7-4.95q.935-3.135,1.87-6.875t1.76-7.837q.825-4.1,1.375-7.892l4.84-2.586q-.88,0-2.558-.055t-3.547-.165q-1.871-.111-3.658-.275a28.793,28.793,0,0,1-2.888-.384,1.089,1.089,0,0,1-.412-.578,2.369,2.369,0,0,1-.193-.907.862.862,0,0,1,.44-.77,37.3,37.3,0,0,0,4.785.962q2.585.358,4.95.578t4.262.275q1.9.054,2.777.055,2.145,0,4.4-.11t4.18-.275q1.925-.165,3.218-.33a4.683,4.683,0,0,0,1.513-.329c.073,0,.184.073.329.22a.684.684,0,0,1,.22.5.976.976,0,0,1-.55.907,4.549,4.549,0,0,1-1.54.44q-.991.138-2.42.193t-3.191.166q-.274.054-.274.6a34.2,34.2,0,0,0,.412,4.18q.413,2.916,1.045,6.6t1.43,7.754q.8,4.07,1.595,7.673t1.485,6.325a21.244,21.244,0,0,0,1.183,3.712,2.168,2.168,0,0,0,.468.138,5.8,5.8,0,0,0,.688.027,11.964,11.964,0,0,0,1.237-.055q.523-.055.8-.055a.205.205,0,0,1,.107.03l.03-.057q.193-.358.468-.358h.715q.6,0,1.265-.027a4.715,4.715,0,0,0,1.045-.138,1.388,1.388,0,0,0,.66-.412,2.814,2.814,0,0,0,.495-1.1,15.477,15.477,0,0,0,.385-2.254q.165-1.458.248-3.877t.138-6q.055-3.575.055-8.635,0-4.126-.11-6.875t-.33-4.427a8.188,8.188,0,0,0-.578-2.393q-.357-.714-.907-.715-.275,0-.743.027c-.311.019-.633.028-.962.028s-.633.009-.908.028-.449.027-.522.027-.129-.073-.166-.22a1.841,1.841,0,0,1-.055-.44,3.529,3.529,0,0,1,.055-.55.353.353,0,0,1,.385-.33h4.9q2.365,0,3.905-.11a23.4,23.4,0,0,0,2.915-.385q.825-.165.715.55-.054.331-.11,1.1t-.138,1.651q-.082.88-.137,1.678t-.056,1.182a13.161,13.161,0,0,1,2.173-1.869,23.631,23.631,0,0,1,3.548-2.091,28.943,28.943,0,0,1,4.455-1.7,17.183,17.183,0,0,1,4.9-.715,20.894,20.894,0,0,1,6.1.852,13.531,13.531,0,0,1,4.812,2.53,11.416,11.416,0,0,1,3.135,4.234,14.837,14.837,0,0,1,1.128,6.023,25.661,25.661,0,0,1-.44,4.648q-.44,2.392-1.1,4.757t-1.43,4.593q-.771,2.228-1.43,4.125t-1.1,3.383a8.8,8.8,0,0,0-.439,2.309,1.088,1.088,0,0,0,.577.963,4.075,4.075,0,0,0,2.008.357,12.613,12.613,0,0,0,1.292-.055,1.866,1.866,0,0,0,.907-.33c.147-.073.293,0,.44.22a.671.671,0,0,1,.11.384,1.668,1.668,0,0,1-.3.77.84.84,0,0,1-.687.5h-1.924q-1.485,0-3.219.027t-3.409.028h-2.558q-.825,0-.825-.55a.931.931,0,0,1,.055-.412.286.286,0,0,1,.193-.111,1.714,1.714,0,0,0,.33-.11,1.958,1.958,0,0,0,.522-.412,13.169,13.169,0,0,0,1.266-3.108,44.977,44.977,0,0,0,1.182-5.088q.523-2.915.88-6.325a65.554,65.554,0,0,0,.357-6.819,21.481,21.481,0,0,0-.825-6.27,13.683,13.683,0,0,0-2.255-4.51,9.453,9.453,0,0,0-3.3-2.723,8.957,8.957,0,0,0-3.96-.907,10.866,10.866,0,0,0-3.713.687,13.624,13.624,0,0,0-3.492,1.87,13.616,13.616,0,0,0-2.778,2.75,7.913,7.913,0,0,0-1.512,3.272,20.486,20.486,0,0,0-.276,2.695q-.109,1.925-.165,4.455t-.083,5.335q-.027,2.805-.027,5.335,0,1.594.055,3.053t.165,2.64q.111,1.183.22,2.007a4.249,4.249,0,0,0,.22,1.046,1.619,1.619,0,0,0,.495.687,3.513,3.513,0,0,0,1.54.193,5.028,5.028,0,0,0,.852-.055,4.215,4.215,0,0,1,.743-.055.467.467,0,0,1,.495.3,1.564,1.564,0,0,1,.111.523.634.634,0,0,1-.193.329.6.6,0,0,1-.468.221q-.329,0-1.128-.028t-1.787-.027q-.99,0-1.952-.028t-1.513-.027q-1.43,0-2.942.027l-2.832.055q-1.32.028-2.338.083-.807.044-1.182.087c0,.008,0,.016,0,.023a.341.341,0,0,1-.385.385,7.387,7.387,0,0,1-.771-.055q-.494-.055-1.375-.083t-2.282-.082q-1.4-.055-3.547-.056-.715,0-1.568.056t-1.623.11q-.77.055-1.374.11c-.4.037-.679.055-.825.055-.11,0-.2-.073-.275-.22a1.1,1.1,0,0,1-.11-.495,1.189,1.189,0,0,1,.083-.468.3.3,0,0,1,.3-.193q.494-.054,1.319-.082c.551-.019.825-.156.825-.413a19.7,19.7,0,0,0-.275-1.98q-.275-1.65-.688-3.96l-.88-4.922q-.467-2.612-.907-4.867-.991-.166-2.5-.275t-3.163-.11q-1.925,0-3.658.165a8.981,8.981,0,0,0-2.723.6q-.275,1.211-.6,2.558t-.633,2.723q-.3,1.376-.522,2.723a15.593,15.593,0,0,0-.221,2.5,4.545,4.545,0,0,0,.963,3.244,3.2,3.2,0,0,0,2.392.99,10.969,10.969,0,0,0,1.787-.083,2.857,2.857,0,0,1,.633-.082q.44,0,.44.22c0,.074-.083.193-.248.357a5.077,5.077,0,0,1-.633.523q-.5.385-1.292.962a3.433,3.433,0,0,1-2.063.578q-.165,0-.852-.055l-1.678-.138q-.99-.082-2.09-.138t-2.09-.055q-1.376,0-2.228.055t-1.347.111q-.315.034-.508.07a1.6,1.6,0,0,1,.508,1.195,1.709,1.709,0,0,1-.138.578.555.555,0,0,1-.578.357A2.3,2.3,0,0,1-1587.023,302.365Zm17.82-39.077a17.538,17.538,0,0,0-1.292,2.419q-.687,1.513-1.347,3.465t-1.292,4.016q-.633,2.061-1.156,4.1t-.852,3.685q.88-.22,2.228-.468t2.86-.522q1.512-.275,3.025-.523t2.777-.412q-.274-1.376-.632-3.41t-.743-4.153q-.385-2.117-.742-3.987t-.578-2.86a7.235,7.235,0,0,0-.578-1.87c-.165-.257-.339-.385-.522-.385Q-1568.6,262.38-1569.2,263.288Zm148.335,37.7a4.93,4.93,0,0,1-1.76-1.375q-.44.055-1.183.138t-1.512.138q-.769.055-1.43.11t-.935.055a2.55,2.55,0,0,1-.715-.082q-.275-.082-.413-.55a6.754,6.754,0,0,1-.193-1.4q-.054-.934-.055-2.64a19.409,19.409,0,0,1-5.417,3.548,19.517,19.517,0,0,1-7.837,1.512,20.486,20.486,0,0,1-6.546-1.347,15.537,15.537,0,0,1-5.252-3.355,15.107,15.107,0,0,1-3.492-5.417,19.952,19.952,0,0,1-1.21-7.536,19.8,19.8,0,0,1,1.1-5.912,39.138,39.138,0,0,1,2.5-5.857,42.659,42.659,0,0,1,3-4.9,19.37,19.37,0,0,1,2.53-3.025q-1.65.054-3.272.137a22.344,22.344,0,0,0-2.943.33,9.783,9.783,0,0,0-2.227.66,1.9,1.9,0,0,0-1.128,1.128c0,.074-.092.11-.275.11a.613.613,0,0,1-.275-.055q0-.6.028-1.183t.138-1.347q.109-.714.192-1.237a4.452,4.452,0,0,1,.358-1.128q.22-.549.577-.577a3.96,3.96,0,0,1,.963.082q.494.055,1.7.166t2.7.193q1.485.082,3.025.165t2.695.083q1.211,0,1.787-.055t1.623-.166v1.045a5.658,5.658,0,0,0-1.952,1.6,16.464,16.464,0,0,0-2.31,3.547,28.88,28.88,0,0,0-1.98,5.307,27.243,27.243,0,0,0-.907,6.875,30.815,30.815,0,0,0,.824,7.893,18.87,18.87,0,0,0,2.475,5.885,11.156,11.156,0,0,0,3.878,3.658,10.2,10.2,0,0,0,5.032,1.264,10.89,10.89,0,0,0,4.868-1.128,10.824,10.824,0,0,0,3.052-2.173q2.036-2.2,2.613-7.122a105.459,105.459,0,0,0,.578-12.018q0-5.446-.11-8.581a10.373,10.373,0,0,0-.551-3.849q-.054-.22-.77-.358a10.5,10.5,0,0,0-1.65-.165q-.936-.027-1.87-.027a12.225,12.225,0,0,0-1.375.055.443.443,0,0,1-.55-.3,2.321,2.321,0,0,1-.11-.688.95.95,0,0,1,.193-.55,1.032,1.032,0,0,1,.467-.385q2.421.055,5.252.22t5.2.166q1.925,0,3.658-.083t3.548-.193q.494.109.495.77,0,.714-.495.824a4.009,4.009,0,0,1-1.183.055q-.688-.054-1.4-.055a1.692,1.692,0,0,0-1.155.385,12.666,12.666,0,0,0-.55,2.613q-.275,1.952-.467,4.84t-.33,6.6q-.138,3.713-.138,7.947,0,4.621.083,7.508t.3,4.565a9.074,9.074,0,0,0,.55,2.393,2.069,2.069,0,0,0,.825.99q.6.274,1.183.495a3.769,3.769,0,0,0,1.347.22q.329,0,.715-.027t.385.247q0,1.045-1.485,1.045A6.246,6.246,0,0,1-1420.868,300.99Zm-70.813-1.76a18.635,18.635,0,0,1-6.462-3.712,17.6,17.6,0,0,1-4.345-5.968,19.264,19.264,0,0,1-1.595-8.03,20.966,20.966,0,0,1,1.87-8.965,21.848,21.848,0,0,1,4.95-6.875,22.324,22.324,0,0,1,7.04-4.428,22.071,22.071,0,0,1,8.195-1.567,25.047,25.047,0,0,1,7.7,1.183,19.706,19.706,0,0,1,6.49,3.465,16.545,16.545,0,0,1,4.455,5.665,17.411,17.411,0,0,1,1.65,7.727,21.658,21.658,0,0,1-1.65,8.2,24.812,24.812,0,0,1-4.565,7.315,23.117,23.117,0,0,1-6.93,5.252,19.4,19.4,0,0,1-8.8,2.007A24.656,24.656,0,0,1-1491.681,299.23Zm3.3-36.328a12.446,12.446,0,0,0-4.07,3.712,17.507,17.507,0,0,0-2.558,5.638,27.359,27.359,0,0,0-.88,7.123,27.918,27.918,0,0,0,1.156,8.5,18.091,18.091,0,0,0,3.052,5.94,12.346,12.346,0,0,0,4.373,3.493,11.973,11.973,0,0,0,5.115,1.155,9.52,9.52,0,0,0,5.335-1.512,12.9,12.9,0,0,0,3.877-4.016,18.969,18.969,0,0,0,2.337-5.774,29.781,29.781,0,0,0,.77-6.848,27.312,27.312,0,0,0-1.045-7.837,19.059,19.059,0,0,0-2.832-5.912,12.7,12.7,0,0,0-4.181-3.712,10.434,10.434,0,0,0-5.033-1.292A10.847,10.847,0,0,0-1488.38,262.9Zm-367.271-53.4c-7.875-7.344-8.832-19.543-2.137-27.245s18.507-7.991,26.383-.647,8.832,19.544,2.136,27.246a17.33,17.33,0,0,1-13.194,5.971A19.354,19.354,0,0,1-1855.651,209.5Z" transform="translate(1990 -160.076)" fill="#02020d"/>
</svg>

