<svg xmlns="http://www.w3.org/2000/svg" xmlns:xlink="http://www.w3.org/1999/xlink" width="1920" height="1080" viewBox="0 0 1920 1080">
  <defs>
    <linearGradient id="linear-gradient" x1="0.5" y1="1" x2="0.5" gradientUnits="objectBoundingBox">
      <stop offset="0" stop-color="gray" stop-opacity="0.251"/>
      <stop offset="0.54" stop-color="gray" stop-opacity="0.122"/>
      <stop offset="1" stop-color="gray" stop-opacity="0.102"/>
    </linearGradient>
    <clipPath id="clip-Web_1920_3">
      <rect width="1920" height="1080"/>
    </clipPath>
  </defs>
  <g id="Web_1920_3" data-name="Web 1920 – 3" clip-path="url(#clip-Web_1920_3)">
    <rect width="1920" height="1080" fill="#fff"/>
    <g id="dev" transform="translate(1089.997 169.611)">
      <path id="Path_1" data-name="Path 1" d="M401.908,612.036a26.421,26.421,0,0,0-2.785-7.261,25.43,25.43,0,0,0-4.56-4.991c-5.047-4.581-11.243-9.231-17.933-8.075a23.94,23.94,0,0,0-5.945,2.172c-.975.453-1.956.905-2.959,1.288a14.738,14.738,0,0,1-8.925.78c-1.532-.411-2.959-1.149-4.469-1.608a14.157,14.157,0,0,0-2.193-.473,37.356,37.356,0,0,0,4.24-2.235c7.5-4.595,13.491-12.9,12.656-21.783a35.961,35.961,0,0,0-2.325-8.667l-2.673-7.393c-1.156-3.2-2.353-6.467-4.462-9.127a23.093,23.093,0,0,0-9.14-6.474c-7.414-3.223-15.517-4.358-23.516-5.458l-.557-.077V446.241a5.569,5.569,0,0,0-5.569-5.569H310.281q-.7-4.26-1.392-8.507c-1.323-8.082-2.694-16.311-6.418-23.586-2.437-4.762-6.314-9.308-11.542-10.24a11.2,11.2,0,0,1-3-.7c-1.532-.752-2.367-2.423-3.543-3.655-3.035-3.181-7.971-3.23-12.036-4.873-3.592-1.427-6.53-4.114-9.8-6.182s-7.337-3.536-10.957-2.193a7.342,7.342,0,0,1-.077.787l-2.325-1.072a25.612,25.612,0,0,1-7.073-4.26c-2.583-2.437-3.961-5.667-5.033-9.1-.111-.355-.216-.7-.327-1.079a32.322,32.322,0,0,0,8.66-16.534l.564,1.831a12.162,12.162,0,0,0,.446,1.211,4.776,4.776,0,0,0,1.392,1.97,2.474,2.474,0,0,0,.585.341,2.439,2.439,0,0,0,.6.153,2.228,2.228,0,0,0,.863-.063,3.293,3.293,0,0,0,2.088-1.935,4.176,4.176,0,0,0,.244-.849,4.395,4.395,0,0,0,.049-.529v-.724a1.358,1.358,0,0,0-.035-.348v-.181a2.025,2.025,0,0,0-.07-.411c-.028-.132,0-.077,0-.111-.035-.174-.077-.355-.111-.529v-.132c0-.042-.063-.285-.1-.432s-.049-.188-.07-.285v-.042h0c-.07-.278-.132-.55-.2-.828a23.933,23.933,0,0,1-.383-7.351,78.716,78.716,0,0,1,1.991-10.686l.146-.634c.056-.244.111-.487.16-.738.111-.5.223-1,.327-1.511h0l.251-1.281.188-1.142V324.1a33,33,0,0,0,.244-7.818h0a16.452,16.452,0,0,0-3.919-9.83c-1.747-1.942-4.052-3.376-5.674-5.416-1.518-1.907-2.374-4.26-3.947-6.133-4.344-5.186-15.5-9.182-22.339-9.878-7.839-.794-20.5,1.211-26.823,5.841-2.339,1.706-3.94,4.177-5.569,6.516-2.993,4.351-6.391,8.7-11.187,11.138-1.81.919-3.885,1.615-5.089,3.216a8.7,8.7,0,0,0-1.358,3.606,71.5,71.5,0,0,0-1.434,13.77h0v1.74a12.691,12.691,0,0,0,1.086,5.033c.111.237.237.466.369.7l.084.146a27.69,27.69,0,0,1,2.228,3.794,5.026,5.026,0,0,1,.341,1.156,8.521,8.521,0,0,1-.2,3.049h0a2.679,2.679,0,0,1-.09.459l-.063.3a.587.587,0,0,1-.056.306c-.056.3-.1.6-.146.891h0a6.265,6.265,0,0,0,.153,2.409,3.168,3.168,0,0,0,1.545,2.088,4.526,4.526,0,0,0,1.253.39c.439.077.884.125,1.316.223a6.493,6.493,0,0,1,1.594.592,6.414,6.414,0,0,1,1.344.863,7.65,7.65,0,0,1,.578.585,9.742,9.742,0,0,1,.989,1.351q.223.369.418.752a17.176,17.176,0,0,1,1.19,3.147c.181.647.334,1.3.466,1.956.063.292.118.585.167.87s.1.578.139.863h0a2.028,2.028,0,0,0,.557-.111,3.762,3.762,0,0,0,1.914-2.715c.056-.2.1-.383.146-.571.16-.7.327-1.462.487-2.193a32.281,32.281,0,0,0,12.7,13.993c.195.578.383,1.149.55,1.733.912,3.154,1.351,6.453-.23,9.21a9.745,9.745,0,0,1-5.138,4,3.4,3.4,0,0,0-1.149-.975c-1.831-.919-4.031.2-5.569,1.566-2.785,2.52-5.054,6.133-8.716,6.961-1.323.306-2.785.244-3.885,1.051a9.05,9.05,0,0,0-1.8,2.367,8.3,8.3,0,0,1-7.122,3.55c-1.274-.063-2.785-.355-3.655.578-.647.7-.7,1.8-1.392,2.457-.933.919-2.464.473-3.766.418a7.525,7.525,0,0,0-6.2,3.55,23.2,23.2,0,0,0-2.785,6.961v.042a4.977,4.977,0,0,0-.508.425,7.344,7.344,0,0,0-1.538,2.492,118.95,118.95,0,0,0-9.816,40.5,4.177,4.177,0,0,1-.446,1.963,9.662,9.662,0,0,1-1.023,1.114,3.9,3.9,0,0,0,.647,5.569,4.382,4.382,0,0,1,.745-.989c-.077.32-.146.633-.195.919a24.707,24.707,0,0,0-.077,6.126q.989,14.508,2,28.995c.188,2.736.376,5.465.627,8.194q.731,7.922,2.088,15.782a6.8,6.8,0,0,0,.153.7c-5.674,1.8-10.721,5.061-12.844,10.5-.738,1.88-1.072,3.926-1.977,5.729-1,1.977-2.631,3.557-3.717,5.493-1.873,3.328-1.956,7.407-1.274,11.138,1.316,7.275,5.249,13.777,10.442,19.068h-.7a10.889,10.889,0,0,0-4.755,1.706c-10.985,6.418-17.265,20.188-14.974,32.761a14.055,14.055,0,0,0,2.882,6.822,10.8,10.8,0,0,0,5.068,3.1,17.609,17.609,0,0,0,3.738.7c8.563.7,16.854-3.272,25.437-3.606a68.2,68.2,0,0,1,8.514.4q6.2.515,12.426.654c6.746.16,10.54-1.636,14.842-6.676a18.173,18.173,0,0,0,2.624-4.135c3.662-.209,7.706-.529,10.63-.766l.042.4c.16,1.392.4,2.993,1.518,3.871a5.3,5.3,0,0,0,2.088.856c7.031,1.727,14.146,3.481,21.386,3.481a90.3,90.3,0,0,0,10.157-.78l12.719-1.469a63.356,63.356,0,0,1,10.93,2.381c3.676,1.246,7.108,3.1,10.7,4.567,8.354,3.383,17.334,4.595,26.231,5.778,1.518.2,3.258.341,4.379-.7,1.448-1.392.968-3.717.557-5.667-.167-.8-.292-1.6-.39-2.409a121.986,121.986,0,0,1,17.571,6.1l1,.439c.292,1.518,1.692,2.729,3.035,4.365a11.134,11.134,0,0,0,1.538,1.907,5.131,5.131,0,0,0,2.207.794,102.9,102.9,0,0,0,28.493,1.288,29.137,29.137,0,0,1,5.876-.2,25.46,25.46,0,0,1,4.246.954l8.054,2.311c5.938,1.7,12.016,3.418,18.177,3.035a23.257,23.257,0,0,0,3.71-.536c4.873-1.128,9.412-3.85,11.751-8.229C405.215,625.9,403.69,618.58,401.908,612.036Z" transform="translate(-89.524 -158.501)" fill="url(#linear-gradient)"/>
      <path id="Path_2" data-name="Path 2" d="M205.03,745.4c-1.469-3.342-2.861-7.184-1.392-10.526a8.945,8.945,0,0,1,4.629-4.351,22.273,22.273,0,0,1,6.265-1.545A87.443,87.443,0,0,1,234.9,728.7c.494,3.912-.55,7.88-1.448,11.661-.814,3.481-1.281,4-4.873,4.177C226.255,744.66,205.58,746.63,205.03,745.4Z" transform="translate(-117.996 -293.221)" fill="#fbbebe"/>
      <ellipse id="Ellipse_11" data-name="Ellipse 11" cx="99.55" cy="27.846" rx="99.55" ry="27.846" transform="translate(49.476 373.944)" fill="#464353"/>
      <ellipse id="Ellipse_12" data-name="Ellipse 12" cx="99.55" cy="27.846" rx="99.55" ry="27.846" transform="translate(49.476 373.944)" opacity="0.1"/>
      <path id="Path_3" data-name="Path 3" d="M291.085,444.6a30.972,30.972,0,0,1-15.97,14.508,40.083,40.083,0,0,1-12.677,2.409,36.111,36.111,0,0,1-13.993-1.706c-5.959-2.158-10.909-6.572-14.619-11.716s-6.265-11.02-8.486-16.944c-1.17-3.084-2.283-6.37-1.733-9.628,3.585-.814,7.511-2.012,9.363-5.193,1.58-2.729,1.142-6,.23-9.12-.258-.884-.557-1.761-.856-2.6-.7-2.019-3.1-5.855-1.392-7.581,1.065-1.093,5.527-1.65,7.066-2.36,4.741-2.186,9.113-5.346,14.32-6.384,4.5-.9,9.154-.056,13.651.877a4.49,4.49,0,0,1,1.685.606,4.052,4.052,0,0,1,1.253,1.88c1.281,3.119,2.033,6.565,3.063,9.816,1.072,3.4,2.45,6.6,5.033,9.015a25.7,25.7,0,0,0,7.08,4.219l6.168,2.826a8.11,8.11,0,0,1,2.917,1.887,7.386,7.386,0,0,1,1.392,3.787,35.378,35.378,0,0,1-3.495,21.407Z" transform="translate(-124.21 -189.811)" fill="#fbbebe"/>
      <path id="Path_4" data-name="Path 4" d="M274.971,401.461a32.023,32.023,0,0,1-38.755,5.75c-.258-.884-.557-1.761-.856-2.6-.7-2.019-3.1-5.855-1.392-7.581,1.065-1.093,5.527-1.65,7.066-2.36,4.741-2.186,9.113-5.346,14.32-6.384,4.5-.9,9.154-.056,13.652.877a4.49,4.49,0,0,1,1.685.606,4.052,4.052,0,0,1,1.253,1.88C273.189,394.764,273.941,398.21,274.971,401.461Z" transform="translate(-127.22 -189.811)" opacity="0.1"/>
      <circle id="Ellipse_13" data-name="Ellipse 13" cx="32.023" cy="32.023" r="32.023" transform="translate(92.638 156.049)" fill="#fbbebe"/>
      <path id="Path_5" data-name="Path 5" d="M328.237,493.4l-2.631-15.942c-1.33-8-2.7-16.151-6.419-23.356-2.443-4.72-6.321-9.217-11.549-10.15a11.173,11.173,0,0,1-3.007-.7c-1.532-.738-2.367-2.395-3.543-3.62-3.035-3.147-7.978-3.2-12.043-4.8-3.592-1.392-6.53-4.072-9.8-6.119s-7.344-3.481-10.964-2.172c-.585,6.231-1.2,12.6-3.85,18.274A27.345,27.345,0,0,1,223.174,455.1c-6.2-4.671-10.178-11.876-12.029-19.416-.453-1.838-.968-3.947-2.659-4.79-1.831-.919-4.031.2-5.569,1.545-2.785,2.5-5.061,6.077-8.723,6.92-1.323.306-2.785.244-3.885,1.044a8.841,8.841,0,0,0-1.81,2.346,8.354,8.354,0,0,1-7.122,3.523c-1.274-.063-2.785-.355-3.655.571-.647.7-.7,1.782-1.392,2.43-.94.912-2.464.466-3.773.418a7.612,7.612,0,0,0-6.2,3.481,22.454,22.454,0,0,0-2.785,6.864c7.609,16.944,14.57,33.91,22.179,50.854a4.337,4.337,0,0,1,.55,2.088,5.089,5.089,0,0,1-.947,2.089c-3.731,5.994-3.613,13.533-3.2,20.578s.912,14.487-2.235,20.8c-.856,1.733-1.97,3.321-2.785,5.054-1.907,3.926-2.6,16.485-1.483,20.7H333.034c-3-8.249-1.859-24.8-1.232-33.561.439-6.126-.7-12.245-1.183-18.371C329.553,517.76,330.3,505.891,328.237,493.4Z" transform="translate(-106.011 -201.402)" fill="#6c63ff"/>
      <path id="Path_6" data-name="Path 6" d="M146.149,544.865a24.645,24.645,0,0,0-.084,6.077l2,28.73c.188,2.708.376,5.409.627,8.11.48,5.242,1.2,10.442,2.088,15.636a2.785,2.785,0,0,0,2.854,2.708c8.806,1.866,17.9,1.789,26.892,1.281,13.714-.766,27.407-2.513,41.143-2.214,3.536.077,7.658,0,9.8-2.785s.9-7.289-1.9-9.537-6.6-2.785-10.192-2.785c-4.755-.049-9.509.627-14.25.348a70.594,70.594,0,0,1-12.823-2.36l-11.835-2.945a45.622,45.622,0,0,1,3.112-10.366c2.325-6.036,4.5-12.273,4.539-18.74s-2.4-13.269-7.692-16.972c-4.358-3.042-9.969-3.606-15.281-3.481-3.864.111-10.54-.815-14.069.7C148.286,537.493,146.671,542.129,146.149,544.865Z" transform="translate(-100.647 -234.626)" fill="#fbbebe"/>
      <path id="Path_7" data-name="Path 7" d="M356.9,643.11c2.318-.884,4.873-.564,7.358-.23,8,1.093,16.116,2.214,23.53,5.409a23.1,23.1,0,0,1,9.147,6.412c2.088,2.638,3.307,5.869,4.462,9.05l2.673,7.324a35.253,35.253,0,0,1,2.332,8.584c.835,8.765-5.158,17.028-12.7,21.581s-16.415,6.175-25.061,7.873-17.327,3.578-25.939,5.569a104.418,104.418,0,0,1-12.2,2.4c-9.217,1.044-18.852-.494-27.609,2.555-3.481,1.218-6.9,3.028-10.512,3.871a65.393,65.393,0,0,1-7.268,1.107l-16.575,1.894a90.42,90.42,0,0,1-10.164.78c-7.24,0-14.362-1.713-21.393-3.425a5.412,5.412,0,0,1-2.088-.842c-1.114-.877-1.357-2.43-1.518-3.836q-1.065-9.335-1.866-18.692c-.167-2.026-.292-4.219.815-5.924,1.392-2.088,4.107-2.743,6.586-3.147a171.87,171.87,0,0,1,31.8-2.207c4.045-4.045,10.714-4.066,16.011-6.265a47.623,47.623,0,0,0,5.646-3.07,73.791,73.791,0,0,1,31-9.795,28.854,28.854,0,0,0,6.342-.9c4.1-1.274,7.839-4.741,12.05-3.892.522-1.441.884-3.369,2.088-4.358.6-.508,1.337-.849,1.887-1.392,1.163-1.177,1.267-3.028,1.093-4.671s-.564-3.328-.139-4.929a6.815,6.815,0,0,1,.773-1.719C349.552,644.614,352.7,642.762,356.9,643.11Z" transform="translate(-126.622 -267.182)" fill="#464353"/>
      <path id="Path_8" data-name="Path 8" d="M356.9,643.11c2.318-.884,4.873-.564,7.358-.23,8,1.093,16.116,2.214,23.53,5.409a23.1,23.1,0,0,1,9.147,6.412c2.088,2.638,3.307,5.869,4.462,9.05l2.673,7.324a35.253,35.253,0,0,1,2.332,8.584c.835,8.765-5.158,17.028-12.7,21.581s-16.415,6.175-25.061,7.873-17.327,3.578-25.939,5.569a104.418,104.418,0,0,1-12.2,2.4c-9.217,1.044-18.852-.494-27.609,2.555-3.481,1.218-6.9,3.028-10.512,3.871a65.393,65.393,0,0,1-7.268,1.107l-16.575,1.894a90.42,90.42,0,0,1-10.164.78c-7.24,0-14.362-1.713-21.393-3.425a5.412,5.412,0,0,1-2.088-.842c-1.114-.877-1.357-2.43-1.518-3.836q-1.065-9.335-1.866-18.692c-.167-2.026-.292-4.219.815-5.924,1.392-2.088,4.107-2.743,6.586-3.147a171.87,171.87,0,0,1,31.8-2.207c4.045-4.045,10.714-4.066,16.011-6.265a47.623,47.623,0,0,0,5.646-3.07,73.791,73.791,0,0,1,31-9.795,28.854,28.854,0,0,0,6.342-.9c4.1-1.274,7.839-4.741,12.05-3.892.522-1.441.884-3.369,2.088-4.358.6-.508,1.337-.849,1.887-1.392,1.163-1.177,1.267-3.028,1.093-4.671s-.564-3.328-.139-4.929a6.815,6.815,0,0,1,.773-1.719C349.552,644.614,352.7,642.762,356.9,643.11Z" transform="translate(-126.622 -267.182)" opacity="0.05"/>
      <path id="Path_9" data-name="Path 9" d="M183.065,743.565c-4.309,4.991-8.1,6.773-14.849,6.613q-6.224-.146-12.433-.647a69.758,69.758,0,0,0-8.521-.4c-8.59.334-16.882,4.267-25.451,3.578a18.042,18.042,0,0,1-3.738-.7,10.881,10.881,0,0,1-5.073-3.07,13.866,13.866,0,0,1-2.882-6.76A31.845,31.845,0,0,1,125.1,709.732a10.987,10.987,0,0,1,4.762-1.692,11.285,11.285,0,0,1,4.817,1.058l.1.042a36.431,36.431,0,0,1,11.932,7.964,6.726,6.726,0,0,0,1.824,1.469,6.265,6.265,0,0,0,2.151.4l9.147.578a21.674,21.674,0,0,1,4.6.633,36.541,36.541,0,0,1,4.831,2.089c4.922,2.2,10.38,2.785,15.7,3.634a2.347,2.347,0,0,1,1.392.557,2.178,2.178,0,0,1,.432.9,17.759,17.759,0,0,1-3.717,16.193Z" transform="translate(-89.627 -287.085)" fill="#3f3d56"/>
      <path id="Path_10" data-name="Path 10" d="M134.78,709.15a54.924,54.924,0,0,0-9.154,11.445,57.279,57.279,0,0,0-7.477,22.653,42.05,42.05,0,0,0-.077,8.778A10.88,10.88,0,0,1,113,748.949a13.866,13.866,0,0,1-2.882-6.76A31.845,31.845,0,0,1,125.1,709.742a10.984,10.984,0,0,1,4.762-1.692,11.286,11.286,0,0,1,4.817,1.058Z" transform="translate(-89.627 -287.088)" opacity="0.1"/>
      <path id="Path_11" data-name="Path 11" d="M390.912,733.939c5.117-.139,10.86-.4,14.619,3.049,3.585,3.258,4.059,8.632,4.3,13.471l.272,5.618a11.222,11.222,0,0,1-.536,5.068c-1.225,2.785-4.588,4.128-7.658,3.968s-5.889-1.5-8.7-2.715a122.32,122.32,0,0,0-23.669-7.456q.4-5.827,1.323-11.6c.425-2.666.494-7.129,2.276-9.342,1.887-2.339,4.344-1.072,6.906-.64a55.429,55.429,0,0,0,10.867.578Z" transform="translate(-168.595 -294.557)" fill="#fbbebe"/>
      <path id="Path_12" data-name="Path 12" d="M181.125,646.707c0,.7-1.093,0-1.19-.745-.766-5.632-5.235-10.275-10.442-12.531s-11.138-2.374-16.777-1.838c-8.528.808-18.1,4.072-21.219,12.043-.738,1.866-1.072,3.885-1.977,5.674-1,1.963-2.638,3.529-3.724,5.437-1.873,3.3-1.949,7.344-1.274,11.076,1.817,9.955,8.625,18.469,16.875,24.365s17.891,9.419,27.5,12.593A477,477,0,0,0,246.869,721.4a74.925,74.925,0,0,1,12.726,2.625c3.676,1.232,7.115,3.077,10.707,4.525,8.354,3.355,17.341,4.553,26.245,5.729,1.518.2,3.258.334,4.379-.7,1.448-1.344.968-3.683.557-5.611a30.178,30.178,0,0,1,3.557-21.414c1.49-2.506,3.425-5.075,3.147-7.978-.334-3.383-3.7-5.778-7.059-6.321s-6.767.258-10.136.7a5.43,5.43,0,0,1-3.446-.341,6.885,6.885,0,0,1-1.351-1.2,15.267,15.267,0,0,0-17.78-2.485c-1.246.7-3.133-.856-4.428-1.441l-14.64-6.627c-16.819-7.609-33.722-15.253-51.515-20.07a10.82,10.82,0,0,1-3.968-1.65c-.884-.7-1.518-1.643-2.332-2.416-1.775-1.678-4.247-2.346-6.377-3.536S180.637,649.1,181.125,646.707Z" transform="translate(-94.028 -263.776)" fill="#464353"/>
      <path id="Path_13" data-name="Path 13" d="M492.142,766.686c-2.339,4.337-6.878,7.038-11.751,8.152a23.324,23.324,0,0,1-3.717.529c-6.161.383-12.245-1.323-18.183-3.007l-8.061-2.269a25.456,25.456,0,0,0-4.247-.947,29.141,29.141,0,0,0-5.876.2,104.135,104.135,0,0,1-28.542-1.281,5.031,5.031,0,0,1-2.207-.787,10.965,10.965,0,0,1-1.539-1.887c-2.193-2.638-4.553-4.177-1.956-7.658,1.5-2.019,4.274-3.028,5.437-5.346s.418-5.611-.272-8.006c-.94-3.307-4.031-4.734-5.138-7.769-.828-2.29.564-4.95,2.659-6.2a11.047,11.047,0,0,1,7.1-1.023c2.416.32,4.783,1,7.212,1.19,7.143.571,14.445-3.112,21.3-1.037,1.511.459,2.938,1.19,4.469,1.594a14.863,14.863,0,0,0,8.932-.773c1-.376,1.984-.828,2.959-1.274a23.828,23.828,0,0,1,5.952-2.151c6.69-1.149,12.893,3.481,17.94,8a25.363,25.363,0,0,1,4.56,4.943,24.813,24.813,0,0,1,2.785,7.191C493.806,753.515,495.33,760.768,492.142,766.686Z" transform="translate(-179.347 -292.775)" fill="#3f3d56"/>
      <path id="Path_14" data-name="Path 14" d="M516.509,766.667c-2.339,4.337-6.878,7.038-11.751,8.152a22.757,22.757,0,0,0,2.471-11.946c-.418-6.62-3.328-12.858-7.038-18.358a65.019,65.019,0,0,0-7.755-9.447c-2.214-2.228-4.936-4-7.317-6.036a23.823,23.823,0,0,1,5.952-2.151c6.69-1.149,12.893,3.481,17.94,8a25.359,25.359,0,0,1,4.56,4.943,24.81,24.81,0,0,1,2.785,7.191C518.173,753.5,519.7,760.75,516.509,766.667Z" transform="translate(-203.714 -292.757)" opacity="0.1"/>
      <path id="Path_15" data-name="Path 15" d="M157,473.672a7.206,7.206,0,0,0-1.545,2.471,116.858,116.858,0,0,0-9.816,40.112,4.01,4.01,0,0,1-.453,1.942,8.5,8.5,0,0,1-1.023,1.107,3.843,3.843,0,0,0,.654,5.569c1.149-2.165,3.9-2.868,6.342-3.056,11.7-.926,23.133,4.518,34.87,4.107-.828-2.861-2.019-5.611-2.694-8.507-2.986-12.858,4.462-26.857-.1-39.242-.912-2.478-2.437-4.915-4.838-6a12.888,12.888,0,0,0-3.1-.821c-2.966-.536-8.869-2.826-11.737-1.907-1.058.341-1.476,1.337-2.353,1.935C159.877,472.238,158.109,472.551,157,473.672Z" transform="translate(-99.84 -214.523)" fill="#6c63ff"/>
      <rect id="Rectangle_1" data-name="Rectangle 1" width="155.242" height="98.853" rx="7.97" transform="translate(81.847 284.488)" fill="#3f3d56"/>
      <circle id="Ellipse_14" data-name="Ellipse 14" cx="4.177" cy="4.177" r="4.177" transform="translate(154.943 329.738)" fill="#fff"/>
      <path id="Path_16" data-name="Path 16" d="M217.421,296.269c-2.339,1.692-3.94,4.121-5.569,6.453-3,4.309-6.4,8.611-11.194,11.013-1.817.912-3.891,1.6-5.1,3.188a8.59,8.59,0,0,0-1.358,3.571,70.766,70.766,0,0,0-1.434,13.645,15.165,15.165,0,0,0,1.107,6.711c.954,1.949,2.673,3.6,3.028,5.722.271,1.657-.341,3.307-.557,4.971s.16,3.634,1.7,4.427a10.3,10.3,0,0,0,2.576.606c4.629,1.03,6.182,6.46,6.885,10.95,1.573-.091,2.283-1.894,2.611-3.362l4.824-21.448c.522-2.325,1.392-5.019,3.71-5.834,1.552-.536,3.251-.035,4.873.1,6.37.522,11.758-4.4,17.989-5.757a22.972,22.972,0,0,1,6.063-.4c4.915.244,10.63,2.262,11.674,6.85.174.745.278,1.636.975,2s1.427.056,2.158,0c3.119-.313,4.957,3.2,5.855,6.063l3.272,10.442c.487,1.58,1.309,3.439,3.021,3.641,1.58.2,2.924-1.3,3.161-2.785a12.2,12.2,0,0,0-.62-4.511c-1.538-6.857.815-13.874,2.249-20.745s1.692-14.765-3.119-20.056c-1.747-1.914-4.045-3.342-5.674-5.36-1.518-1.894-2.374-4.219-3.947-6.077-4.351-5.131-15.51-9.092-22.353-9.746C236.412,289.7,223.742,291.681,217.421,296.269Z" transform="translate(-114.884 -160.172)" fill="#3f3d56"/>
      <g id="Group_1" data-name="Group 1" transform="translate(77.893 161.263)" opacity="0.1">
        <path id="Path_17" data-name="Path 17" d="M276.111,370.47c-1.713-.209-2.534-2.088-3.021-3.641q-1.636-5.228-3.272-10.442c-.9-2.875-2.736-6.384-5.855-6.063-.731.077-1.518.362-2.158,0s-.8-1.26-.975-2c-1.044-4.6-6.76-6.606-11.674-6.85a23.276,23.276,0,0,0-6.063.4c-6.231,1.392-11.619,6.265-17.989,5.757-1.643-.132-3.342-.634-4.873-.1-2.346.808-3.188,3.481-3.71,5.834L211.7,374.8c-.327,1.476-1.037,3.279-2.611,3.362-.7-4.483-2.256-9.913-6.885-10.944a10.942,10.942,0,0,1-2.576-.606,3.021,3.021,0,0,1-1.344-1.5c-.125.647-.271,1.3-.355,1.942-.209,1.657.16,3.634,1.7,4.428a10.3,10.3,0,0,0,2.576.606c4.629,1.03,6.182,6.46,6.885,10.95,1.573-.09,2.283-1.894,2.611-3.362l4.824-21.448c.522-2.325,1.392-5.019,3.71-5.834,1.552-.536,3.251-.035,4.873.1,6.37.522,11.758-4.4,17.989-5.757a22.969,22.969,0,0,1,6.063-.4c4.915.244,10.63,2.262,11.674,6.85.174.745.278,1.636.975,2s1.427.056,2.158,0c3.119-.313,4.957,3.2,5.855,6.063q1.629,5.228,3.272,10.442c.487,1.58,1.309,3.439,3.021,3.641,1.58.2,2.924-1.3,3.161-2.785a9.454,9.454,0,0,0-.418-3.7,2.875,2.875,0,0,1-2.743,1.608Z" transform="translate(-194.328 -336.95)"/>
        <path id="Path_18" data-name="Path 18" d="M196.915,359.789c-.355-2.123-2.088-3.773-3.028-5.722a11.451,11.451,0,0,1-1.03-4.177c0,.78-.07,1.559-.077,2.346a15.165,15.165,0,0,0,1.107,6.711c.773,1.58,2.047,2.973,2.687,4.581a10.484,10.484,0,0,0,.341-3.738Z" transform="translate(-192.78 -339.524)"/>
        <path id="Path_19" data-name="Path 19" d="M315.941,340.451c-1.267,6.07-3.244,12.252-2.631,18.337.4-4.49,1.706-9.008,2.631-13.464A35.5,35.5,0,0,0,316.749,335a42.565,42.565,0,0,1-.808,5.451Z" transform="translate(-229.368 -335)"/>
      </g>
      <g id="Group_2" data-name="Group 2" transform="translate(208.414 85.389)" opacity="0.8">
        <line id="Line_1" data-name="Line 1" x2="435.136" transform="translate(21.344 116.835)" fill="none" stroke="#3f3d56" stroke-miterlimit="10" stroke-width="3"/>
        <path id="Path_20" data-name="Path 20" d="M466.46,377.307s20.808,2.889,10.032-19.437,29.238-18.1,29.238-18.1" transform="translate(-406.459 -260.479)" fill="none" stroke="#3f3d56" stroke-miterlimit="10" stroke-width="3"/>
        <path id="Path_21" data-name="Path 21" d="M665.53,393.777s20.808-2.882,10.031,19.443,29.238,18.1,29.238,18.1" transform="translate(-466.946 -276.949)" fill="none" stroke="#3f3d56" stroke-miterlimit="10" stroke-width="3"/>
        <path id="Path_22" data-name="Path 22" d="M935.02,393.777s-20.815-2.882-10.031,19.443-29.238,18.1-29.238,18.1" transform="translate(-536.898 -276.949)" fill="none" stroke="#3f3d56" stroke-miterlimit="10" stroke-width="3"/>
        <line id="Line_2" data-name="Line 2" x1="114.816" transform="translate(244.036 154.364)" fill="none" stroke="#3f3d56" stroke-miterlimit="10" stroke-width="3"/>
        <circle id="Ellipse_15" data-name="Ellipse 15" cx="12.705" cy="12.705" r="12.705" transform="translate(8.639 104.13)" fill="#6c63ff"/>
        <circle id="Ellipse_16" data-name="Ellipse 16" cx="12.705" cy="12.705" r="12.705" transform="translate(86.782 66.406)" fill="#3acc6c"/>
        <circle id="Ellipse_17" data-name="Ellipse 17" cx="12.705" cy="12.705" r="12.705" transform="translate(86.782 104.13)" fill="#6c63ff"/>
        <circle id="Ellipse_18" data-name="Ellipse 18" cx="12.705" cy="12.705" r="12.705" transform="translate(137.211 104.13)" fill="#6c63ff"/>
        <circle id="Ellipse_19" data-name="Ellipse 19" cx="12.705" cy="12.705" r="12.705" transform="translate(225.358 141.472)" fill="#ff6584"/>
        <circle id="Ellipse_20" data-name="Ellipse 20" cx="12.705" cy="12.705" r="12.705" transform="translate(291.966 141.472)" fill="#ff6584"/>
        <circle id="Ellipse_21" data-name="Ellipse 21" cx="12.705" cy="12.705" r="12.705" transform="translate(288.492 104.13)" fill="#6c63ff"/>
        <circle id="Ellipse_22" data-name="Ellipse 22" cx="12.705" cy="12.705" r="12.705" transform="translate(440.559 104.13)" fill="#6c63ff"/>
        <circle id="Ellipse_23" data-name="Ellipse 23" cx="12.705" cy="12.705" r="12.705" transform="translate(378.351 104.13)" fill="#6c63ff"/>
        <rect id="Rectangle_2" data-name="Rectangle 2" width="42.625" height="29.378" fill="#6c63ff"/>
        <rect id="Rectangle_3" data-name="Rectangle 3" width="42.625" height="29.378" transform="translate(78.331)" fill="#3acc6c"/>
        <rect id="Rectangle_4" data-name="Rectangle 4" width="42.625" height="29.378" transform="translate(216.572)" fill="#ff6584"/>
      </g>
      <g id="Group_3" data-name="Group 3" transform="translate(0.003 202.35)" opacity="0.1">
        <path id="Path_23" data-name="Path 23" d="M141,400.07s-52.048-21.887-58.87,17.6c0,0-3.557,6.154,1.392,11.236,0,0,1.065-2.729,6.091.091a25.88,25.88,0,0,0,5.681,2.311,12.782,12.782,0,0,0,8.089-.432h0s17.118-.926,31.515-23.321c0,0,6.175-3.815,6.481-5.249l-10.317.7s.794,7.553-3.481,12.085c0,0,3.787-11.723,1.97-12.05-.369-.07-5.451.6-5.451.6s1.316,13.136-5.569,19.931c0,0,6.391-13.359,3.613-19.694l-7.616,1.469s2.088,13.819-5.444,21.852c0,0,6.2-14.2,3.8-21.414l-7.289,2.45s1.754,13.512-4.546,20.188c0,0,5.5-17.132,2.91-19.492,0,0-6.558,2.659-7.957,4.177,0,0,1.037,9.746-2.966,13.262,0,0,2.457-11.835,1.239-12.322,0,0-7.616,5.736-9.941,10.686,0,0,2.9-7.56,8.987-11.835,0,0-5.117-.863-9.05,1.274,0,0,2.631-5.019,10.895-2.638,0,0,6.119-4.24,7.344-4.177,0,0-7.818-3.481-13.464-3.049,0,0,6.057-3.481,15.371,2.332l7.275-2.624S101.6,398.85,96.544,398.87c0,0,6.725-2.6,17.035,4.636l7.449-1.518s-8.354-5.117-13.986-6.307c0,0,6.753-1.072,16.137,5.952l5.089-.425s-6.161-3.634-8.027-4.518-1.782-1.455-1.782-1.455a24.289,24.289,0,0,1,11.932,5.7S140.962,400.717,141,400.07Z" transform="translate(-80.893 -394.021)" fill="#6c63ff"/>
      </g>
      <g id="Group_4" data-name="Group 4" transform="translate(7.63 140.939)" opacity="0.1">
        <path id="Path_24" data-name="Path 24" d="M142.411,334.031s-18.434-42.653-44.992-23.091c0,0-5.611,1.629-5.569,7.449,0,0,2.186-1.016,3.571,3.53a20.954,20.954,0,0,0,2.088,4.6,10.442,10.442,0,0,0,5.047,4.351h0s10.7,9.2,32.023,4.1c0,0,5.848,1.246,6.843.578l-6.516-5.479s-3.836,4.943-8.973,5.179c0,0,8.932-4.8,8.041-6.036-.181-.251-3.585-2.743-3.585-2.743s-6.7,8.549-14.619,8.681c0,0,11.41-4.3,13.366-9.642l-5.36-3.481s-6.76,9.4-15.81,9.892c0,0,11.772-4.908,14.459-10.561l-5.729-2.694s-6.655,9.05-14.181,9.391c0,0,13.032-7.045,12.83-9.92,0,0-5.409-2.158-7.129-2.033,0,0-4.922,6.37-9.314,6.189,0,0,8.208-5.632,7.762-6.613,0,0-7.8-.933-12,.7,0,0,6.029-2.84,12.078-1.907,0,0-2.548-3.432-6.091-4.386,0,0,4.428-1.483,7.978,4.629,0,0,6.043.975,6.753,1.7,0,0-2.652-6.537-6.265-9.482,0,0,5.569,1.392,7.8,10.143l5.82,2.583s-3.049-8.827-6.07-11.688c0,0,5.479,2.283,7.484,12.461l5.291,3.335s-2.047-7.8-4.713-11.716c0,0,4.622,3.216,6.189,12.733l3.272,2.645s-1.594-5.667-2.2-7.254-.23-1.88-.23-1.88a19.945,19.945,0,0,1,3.822,10.219S142.015,334.386,142.411,334.031Z" transform="translate(-91.85 -305.806)" fill="#6c63ff"/>
      </g>
    </g>
    <text id="Yohh_I_am_Noubissie_Landry_and_I_am_a_Fullstack_developer_Come_visit_my_site" data-name="Yohh!!
I’am Noubissie Landry and I’am a
Fullstack developer, Come visit my site" transform="translate(173 333)" fill="#0a0909" font-size="50" font-family="HelveticaNeue-Bold, Helvetica Neue" font-weight="700"><tspan x="0" y="0">Yohh!!</tspan><tspan font-family="HelveticaNeue, Helvetica Neue" font-weight="400"><tspan x="0" y="60">I’am Noubissie Landry and I’am a</tspan><tspan x="0" y="120">Fullstack developer, Come visit my site</tspan></tspan></text>
    <g id="Rectangle_5" data-name="Rectangle 5" transform="translate(231 552)" fill="#094feb" stroke="#707070" stroke-width="1">
      <rect width="376" height="141" rx="50" stroke="none"/>
      <rect x="0.5" y="0.5" width="375" height="140" rx="49.5" fill="none"/>
    </g>
    <text id="Hire_Me" data-name="Hire Me" transform="translate(313 641)" fill="#f5f5f5" font-size="50" font-family="HelveticaNeue, Helvetica Neue"><tspan x="0" y="0">Hire Me</tspan></text>
    <path id="Union_3" data-name="Union 3" d="M-1919.069,389.764a133.033,133.033,0,0,1-27.549-17.924,127.779,127.779,0,0,1-18.944-19.8,121.217,121.217,0,0,1-13.618-22.383,40.653,40.653,0,0,0,13.52,4.519,45.244,45.244,0,0,0,14.457-.184,47.7,47.7,0,0,0,14.049-4.766,47.743,47.743,0,0,0,12.3-9.23,46.231,46.231,0,0,0,5.418-6.816,43.4,43.4,0,0,0,3.841-7.365,41.12,41.12,0,0,0,2.267-7.686,39.221,39.221,0,0,0,.7-7.777,37.494,37.494,0,0,0-.874-7.638,36.194,36.194,0,0,0-2.441-7.27,35.673,35.673,0,0,0-4-6.673,36.831,36.831,0,0,0-5.566-5.846,38.349,38.349,0,0,0-6.783-4.577,40.087,40.087,0,0,0-7.5-3.036,42.683,42.683,0,0,0-7.968-1.516,45.3,45.3,0,0,0-8.194-.016,47.224,47.224,0,0,0-8.177,1.461,48,48,0,0,0-7.916,2.917,48.011,48.011,0,0,0-7.411,4.351,47.87,47.87,0,0,0-6.664,5.765,46.877,46.877,0,0,0-3.867,4.578,115.556,115.556,0,0,1,3.006-19.811,116.066,116.066,0,0,1,6.5-19.239,120.3,120.3,0,0,1,23.568-35.062,128.31,128.31,0,0,1,34.974-25.762,134.334,134.334,0,0,1,19.875-8.069,138.16,138.16,0,0,1,20.849-4.832,47.864,47.864,0,0,0-6.2,5.427,46.174,46.174,0,0,0-5.419,6.815,43.4,43.4,0,0,0-3.841,7.366,41.121,41.121,0,0,0-2.267,7.686,39.22,39.22,0,0,0-.695,7.777,37.45,37.45,0,0,0,.874,7.638,36.139,36.139,0,0,0,2.44,7.27,35.751,35.751,0,0,0,4.005,6.673,36.868,36.868,0,0,0,5.565,5.846,38.415,38.415,0,0,0,6.783,4.577,40.093,40.093,0,0,0,7.5,3.036,42.668,42.668,0,0,0,7.968,1.516,45.293,45.293,0,0,0,8.194.016,47.211,47.211,0,0,0,8.177-1.461,48.134,48.134,0,0,0,7.916-2.917,48.039,48.039,0,0,0,7.411-4.352,47.758,47.758,0,0,0,6.664-5.765,44.725,44.725,0,0,0,8.8-13.082,41.552,41.552,0,0,0,2.367-7.089,39.657,39.657,0,0,0,1.016-7.211,36.21,36.21,0,0,0-9.412-26.4,136.037,136.037,0,0,1,26.776,10.478,132.988,132.988,0,0,1,24.39,16.335,126.742,126.742,0,0,1,22.418,24.558,119.728,119.728,0,0,1,14.456,28.131,43.842,43.842,0,0,0-11.632-1.163,46.9,46.9,0,0,0-11.752,1.9,47.985,47.985,0,0,0-11.151,4.9,47.8,47.8,0,0,0-9.825,7.842,46.263,46.263,0,0,0-5.418,6.815,43.461,43.461,0,0,0-3.842,7.366,41.27,41.27,0,0,0-2.267,7.685,39.3,39.3,0,0,0-.695,7.777,37.427,37.427,0,0,0,.874,7.638,36.077,36.077,0,0,0,2.441,7.271,35.7,35.7,0,0,0,4,6.673,36.786,36.786,0,0,0,5.566,5.845,38.549,38.549,0,0,0,9.9,6.056,41.578,41.578,0,0,0,11.139,2.942,45.335,45.335,0,0,0,11.674-.11,47.548,47.548,0,0,0,11.5-3.1,117.186,117.186,0,0,1-10.835,23.044,122.826,122.826,0,0,1-16.243,21.021,127.891,127.891,0,0,1-21.022,17.623,131.616,131.616,0,0,1-23.818,12.608,38.545,38.545,0,0,0,.582-21.488,35.77,35.77,0,0,0-4.293-9.841,36.433,36.433,0,0,0-7.34-8.406,38.349,38.349,0,0,0-6.783-4.577,40.026,40.026,0,0,0-7.5-3.036,42.687,42.687,0,0,0-7.968-1.516,45.383,45.383,0,0,0-8.194-.017,47.229,47.229,0,0,0-8.177,1.462,48,48,0,0,0-7.917,2.917,48.134,48.134,0,0,0-7.411,4.352,47.8,47.8,0,0,0-6.663,5.765,45.473,45.473,0,0,0-7.063,9.561,41.976,41.976,0,0,0-4.063,10.443,37.978,37.978,0,0,0,.85,21.117A136.651,136.651,0,0,1-1919.069,389.764Zm66.122-152.9a58.835,58.835,0,0,0-10.278,1.715,59.11,59.11,0,0,0-9.925,3.548,58.685,58.685,0,0,0-9.266,5.359,58.086,58.086,0,0,0-8.3,7.145,55.969,55.969,0,0,0-6.712,8.484,52.781,52.781,0,0,0-4.716,9.2,50.526,50.526,0,0,0-2.727,9.625,48.873,48.873,0,0,0-.745,9.762,47.359,47.359,0,0,0,1.23,9.611,46.306,46.306,0,0,0,3.2,9.173,46.4,46.4,0,0,0,5.158,8.445,48.112,48.112,0,0,0,7.111,7.429,50.073,50.073,0,0,0,8.624,5.854,51.932,51.932,0,0,0,9.5,3.926,54.631,54.631,0,0,0,10.065,2.022,57.368,57.368,0,0,0,10.325.142,58.9,58.9,0,0,0,10.278-1.715,59.1,59.1,0,0,0,9.925-3.549,58.563,58.563,0,0,0,9.266-5.358,58.044,58.044,0,0,0,8.3-7.145,56.037,56.037,0,0,0,6.713-8.484,52.782,52.782,0,0,0,4.716-9.2,50.6,50.6,0,0,0,2.726-9.625,48.823,48.823,0,0,0,.745-9.762,47.291,47.291,0,0,0-1.23-9.611,46.314,46.314,0,0,0-3.2-9.173,46.287,46.287,0,0,0-5.158-8.445,48.1,48.1,0,0,0-7.111-7.429,50.061,50.061,0,0,0-8.624-5.854,51.875,51.875,0,0,0-9.5-3.926,54.616,54.616,0,0,0-10.065-2.022,56.517,56.517,0,0,0-5.933-.31Q-1850.75,236.7-1852.947,236.865Zm-3.252,158.214c-7.277-6.143-8.161-16.346-1.974-22.788s17.1-6.684,24.38-.541,8.161,16.346,1.974,22.787a16.789,16.789,0,0,1-12.193,4.995A18.943,18.943,0,0,1-1856.2,395.078Zm396.1-40.557q-5.188-.732-9.576-1.729a77.511,77.511,0,0,1-7.714-2.129,42.364,42.364,0,0,1-4.92-1.928q1.2-2.129,2.461-4.522t2.394-5.053a38.389,38.389,0,0,0,1.861-5.519,24.327,24.327,0,0,0,.732-6.052q0-4.655-1.4-7.049t-3.259-2.393a2.6,2.6,0,0,0-1.862.532,15.546,15.546,0,0,0-1.329,1.6l-.665-.532a2.2,2.2,0,0,1-.532-.067c-.177-.044-.31-.2-.4-.465a4.76,4.76,0,0,1,.333-.931,6.722,6.722,0,0,1,1.13-1.729,8.3,8.3,0,0,1,2-1.662,5.507,5.507,0,0,1,2.925-.731,5.15,5.15,0,0,1,3.458,1.13,7.8,7.8,0,0,1,2.129,3.125,17.025,17.025,0,0,1,1.064,4.588,54.214,54.214,0,0,1,.266,5.52,13.437,13.437,0,0,0,2.992,6.516,29.516,29.516,0,0,0,6.384,5.985,38.052,38.052,0,0,0,8.313,4.388,26.867,26.867,0,0,0,8.778,1.862q10.106.266,14.762-4.322a15.814,15.814,0,0,0,4.655-11.77,18.511,18.511,0,0,0-2.261-9.708,17.39,17.39,0,0,0-6.052-5.985,36.754,36.754,0,0,0-8.578-3.657q-4.787-1.4-9.775-2.594t-9.775-2.659a32.485,32.485,0,0,1-8.578-3.99,18.77,18.77,0,0,1-6.052-6.583,21.314,21.314,0,0,1-2.261-10.44,25.939,25.939,0,0,1,2.727-11.637,29.55,29.55,0,0,1,7.78-9.708,38.39,38.39,0,0,1,12.3-6.649,50.941,50.941,0,0,1,16.424-2.461,56.934,56.934,0,0,1,15.028,1.729q6.25,1.729,9.576,2.659.664-1.064,1.463-2.46a17.934,17.934,0,0,1,1.8-2.594,12.033,12.033,0,0,1,2.194-2.061,4.641,4.641,0,0,1,2.793-.865,2.607,2.607,0,0,1,1.929.732,2.061,2.061,0,0,1,.732,1.4,2.073,2.073,0,0,1-1.064,1.064q-.8.4-1.463.8-4.123,2.129-6.849,9.908a65.176,65.176,0,0,0-3.126,19.084.95.95,0,0,1-.665.4,4.917,4.917,0,0,1-1.2.133,5.338,5.338,0,0,1-1.463-.133,24.1,24.1,0,0,0-2.394-8.113,26.294,26.294,0,0,0-5.519-7.514,27.55,27.55,0,0,0-8.644-5.519,30.1,30.1,0,0,0-11.637-2.128,21.4,21.4,0,0,0-7.181,1.13,16.286,16.286,0,0,0-5.387,3.058,13.321,13.321,0,0,0-3.325,4.323,11.119,11.119,0,0,0-1.13,4.788,14.2,14.2,0,0,0,4.522,10.174q4.521,4.589,13.7,6.849,5.719,1.463,11.9,3.258a46.775,46.775,0,0,1,11.238,4.855,27.941,27.941,0,0,1,8.378,7.714q3.325,4.655,3.325,11.836a29.559,29.559,0,0,1-3.259,13.5,39.819,39.819,0,0,1-8.578,11.371,42.414,42.414,0,0,1-12.1,7.846,34.6,34.6,0,0,1-13.831,2.926A76.218,76.218,0,0,1-1460.094,354.522Zm-425.223-38.574a3.724,3.724,0,0,1-.825-.675.8.8,0,0,1-.262-.712c.049-.225.325-.388.824-.488a17.077,17.077,0,0,0,4.425-1.5q2.55-1.2,4.95-2.624t4.237-2.738a22.756,22.756,0,0,0,2.363-1.838q.375-.374.787-3.337t.787-7.2q.375-4.238.638-9.225t.262-9.412q0-9.15-.149-14.926t-.45-9.037a19.952,19.952,0,0,0-.751-4.463q-.45-1.2-1.125-1.2c-.149,0-.45.013-.9.038s-.937.037-1.463.037-.987-.012-1.387-.037-.6-.087-.6-.188v-.862q0-.637.3-.787A11.025,11.025,0,0,1-1872,244.7q1.274,0,2.962.075t3.487.113q1.8.038,3.3.038h2.437q.938,0,.863-.15a5.652,5.652,0,0,0,1.463-.488q1.162-.487,2.925-1.087a35.83,35.83,0,0,1,4.05-1.087,22.794,22.794,0,0,1,4.762-.488q9.376,0,14.7,3.938a12.74,12.74,0,0,1,5.324,10.838,22.927,22.927,0,0,1-2.325,10.462,25.305,25.305,0,0,1-6.113,7.875,27.144,27.144,0,0,1-8.55,4.987,28.108,28.108,0,0,1-9.637,1.725q-1.5,0-3.262-.15a8.374,8.374,0,0,1-2.588-.525v4.875q0,3,.075,6t.3,5.438a10.767,10.767,0,0,0,.6,3.188,1.116,1.116,0,0,0,.938.637,8.226,8.226,0,0,0,1.613.075q.9-.036,1.837-.149a13.7,13.7,0,0,1,1.613-.113.456.456,0,0,1,.3.338,2.164,2.164,0,0,1,.076.6,2.171,2.171,0,0,1-.076.6q-.074.263-.3.263a18.288,18.288,0,0,0-3.262.337q-1.837.338-3.9.9t-4.126,1.312q-2.063.751-3.937,1.575a37.078,37.078,0,0,0-4.5,2.362l-5.4,3.225q-2.7,1.613-4.95,2.813a8.4,8.4,0,0,1-3.15,1.2A1.7,1.7,0,0,1-1885.317,315.948Zm33.825-71.662a17.971,17.971,0,0,0-2.775.976,9.378,9.378,0,0,0-2.025,1.2,2.607,2.607,0,0,0-.938,1.163,12.1,12.1,0,0,0-.262,2.25q-.113,1.8-.225,4.387t-.225,5.7q-.114,3.113-.15,6.113t-.075,5.662q-.038,2.664-.038,4.313.375,1.05,2.625,1.987a15.383,15.383,0,0,0,5.85.938,14.483,14.483,0,0,0,6.037-1.237,12.749,12.749,0,0,0,4.725-3.712,17.783,17.783,0,0,0,3.075-6.113,29.553,29.553,0,0,0,1.087-8.437,18.647,18.647,0,0,0-1.05-6.413,14.686,14.686,0,0,0-2.887-4.912,13.059,13.059,0,0,0-4.313-3.15,12.717,12.717,0,0,0-5.324-1.125A11.987,11.987,0,0,0-1851.493,244.285ZM-1964.25,303.87c-7.277-6.143-8.161-16.346-1.974-22.788s17.1-6.683,24.379-.541,8.161,16.346,1.975,22.787a16.789,16.789,0,0,1-12.194,4.995A18.939,18.939,0,0,1-1964.25,303.87Zm235.765-6.214a4.526,4.526,0,0,1-1-.819.982.982,0,0,1-.319-.865q.092-.409,1-.591a20.753,20.753,0,0,0,5.369-1.82q3.094-1.457,6.006-3.185t5.142-3.322a27.506,27.506,0,0,0,2.867-2.229q.455-.455.956-4.049t.956-8.736q.454-5.142.773-11.193t.319-11.42q0-11.1-.182-18.109t-.546-10.966a24.229,24.229,0,0,0-.91-5.414q-.547-1.457-1.365-1.456-.273,0-1.092.046t-1.775.045q-.956,0-1.683-.045c-.486-.031-.728-.106-.728-.228v-1.047q0-.774.364-.956a13.329,13.329,0,0,1,2-.091q1.546,0,3.594.091t4.232.137q2.184.046,4,.046h2.957q1.138,0,1.047-.183a6.879,6.879,0,0,0,1.775-.591q1.409-.591,3.549-1.319a43.489,43.489,0,0,1,4.914-1.319,27.662,27.662,0,0,1,5.778-.591q11.375,0,17.836,4.777a15.456,15.456,0,0,1,6.461,13.15,27.824,27.824,0,0,1-2.821,12.695,30.71,30.71,0,0,1-7.417,9.554A32.939,32.939,0,0,1-1676.8,253.7a34.115,34.115,0,0,1-11.693,2.093q-1.82,0-3.959-.183a10.152,10.152,0,0,1-3.139-.636v5.915q0,3.64.091,7.28t.365,6.6a13.061,13.061,0,0,0,.728,3.868,1.354,1.354,0,0,0,1.137.773,9.953,9.953,0,0,0,1.957.091q1.092-.046,2.23-.182a16.783,16.783,0,0,1,1.956-.137.559.559,0,0,1,.365.409,2.672,2.672,0,0,1,.091.728,2.671,2.671,0,0,1-.091.728c-.061.212-.182.319-.365.319a22.225,22.225,0,0,0-3.958.41q-2.229.409-4.732,1.092t-5,1.593q-2.5.91-4.777,1.911a44.84,44.84,0,0,0-5.46,2.866l-6.552,3.913q-3.276,1.956-6.006,3.412a10.185,10.185,0,0,1-3.822,1.456A2.073,2.073,0,0,1-1728.485,297.656Zm41.041-86.951a21.818,21.818,0,0,0-3.367,1.184,11.408,11.408,0,0,0-2.457,1.455,3.159,3.159,0,0,0-1.137,1.411,14.653,14.653,0,0,0-.319,2.73q-.138,2.184-.274,5.324t-.273,6.916q-.136,3.777-.182,7.417t-.091,6.871q-.046,3.231-.046,5.233.455,1.273,3.185,2.411a18.672,18.672,0,0,0,7.1,1.138,17.578,17.578,0,0,0,7.325-1.5,15.477,15.477,0,0,0,5.733-4.5,21.593,21.593,0,0,0,3.731-7.417,35.852,35.852,0,0,0,1.319-10.237,22.623,22.623,0,0,0-1.274-7.781,17.8,17.8,0,0,0-3.5-5.961,15.845,15.845,0,0,0-5.233-3.821,15.427,15.427,0,0,0-6.46-1.365A14.507,14.507,0,0,0-1687.444,210.705Zm-70.352,81.918c-7.277-6.143-8.161-16.346-1.975-22.787s17.1-6.684,24.38-.542,8.161,16.346,1.975,22.788a16.8,16.8,0,0,1-12.193,4.994A18.937,18.937,0,0,1-1757.8,292.623Zm129.236-13.689c-.154-.031-.23-.169-.23-.414a.622.622,0,0,1,.368-.6,3.994,3.994,0,0,1-.506-.322,2.115,2.115,0,0,0-.644-.321q-.827-.139-1.7-.276t-1.909-.207q-1.035-.069-2.323-.115t-2.9-.046q-3.726,0-6.325.207t-4.393.437q-1.794.229-2.944.436a11.12,11.12,0,0,1-1.886.207q-.644,0-.643-.552a1.976,1.976,0,0,1,.138-.69c.092-.245.307-.353.643-.322a8.19,8.19,0,0,0,1.449-.046q.9-.092,1.795-.275t1.564-.392a1.79,1.79,0,0,0,.8-.391,7.5,7.5,0,0,0,.391-1.749q.208-1.38.346-3.472t.229-4.761q.092-2.669.093-5.658,0-4.049-.069-6.67t-.161-4.186a19.99,19.99,0,0,0-.23-2.3,7.123,7.123,0,0,0-.275-1.1l-3.312-.184a3.475,3.475,0,0,1-1.495-.253.562.562,0,0,1-.3-.437,1.681,1.681,0,0,1,.093-.575q.092-.252.506-.3.506.046,1.541.161t2.783.207h2.76q2.023-.046,3.772-.229t3.128-.414q1.38-.231,2.3-.461a6.936,6.936,0,0,0,1.288-.414h.046a.1.1,0,0,0,.069-.023.1.1,0,0,1,.069-.023q.46,0,.46.967,0,.413-.851.689a15.675,15.675,0,0,1-1.955.483q-1.1.207-2.162.391a4.5,4.5,0,0,0-1.427.414,8.118,8.118,0,0,0-.482,2.507q-.208,2.047-.322,4.83t-.185,5.91q-.069,3.128-.068,5.75,0,4.232.115,6.854t.437,2.944a1.855,1.855,0,0,0,.506.046,8.306,8.306,0,0,0,.989-.069l1.174-.138q.6-.069,1.173-.161t.989-.138q1.059-.138,2.277-.345t2.415-.507a13.556,13.556,0,0,0,2.231-.759,6.31,6.31,0,0,0,1.771-1.15c.031-.061.054-.084.069-.068s.038.007.068-.023a.438.438,0,0,1,.414-.138.647.647,0,0,1,.391.253,1.045,1.045,0,0,1,.207.46.367.367,0,0,1-.139.391,3.557,3.557,0,0,0-.8.967,11.554,11.554,0,0,0-.713,1.38q-.323.736-.553,1.4a6.04,6.04,0,0,0-.275.989q.094.059.193.13a.26.26,0,0,1,.221-.221,11.633,11.633,0,0,0,1.334-.69,4.728,4.728,0,0,0,1.633-1.863,37,37,0,0,0,1.634-3.565,41.255,41.255,0,0,0,1.426-4.14q.781-2.622,1.564-5.75t1.472-6.555q.69-3.428,1.149-6.6l4.048-2.162q-.736,0-2.139-.046t-2.966-.139q-1.565-.092-3.059-.229a24.1,24.1,0,0,1-2.415-.322.906.906,0,0,1-.346-.483,1.986,1.986,0,0,1-.161-.759.72.72,0,0,1,.368-.644,31.311,31.311,0,0,0,4,.8q2.161.3,4.14.483t3.565.229q1.588.046,2.323.046,1.794,0,3.68-.092t3.5-.229q1.61-.139,2.692-.276a3.905,3.905,0,0,0,1.264-.276c.061,0,.153.061.276.184a.572.572,0,0,1,.184.414.815.815,0,0,1-.46.759,3.822,3.822,0,0,1-1.288.368q-.828.115-2.024.161t-2.668.138c-.154.031-.23.2-.23.506a28.622,28.622,0,0,0,.345,3.5q.346,2.438.874,5.52t1.2,6.486q.667,3.4,1.335,6.417t1.242,5.29a17.8,17.8,0,0,0,.988,3.105,1.778,1.778,0,0,0,.391.114,4.748,4.748,0,0,0,.575.023,10.077,10.077,0,0,0,1.035-.046q.436-.046.667-.046a.171.171,0,0,1,.09.025l.025-.049q.161-.3.391-.3h.6q.5,0,1.057-.023a3.907,3.907,0,0,0,.874-.114,1.172,1.172,0,0,0,.553-.346,2.366,2.366,0,0,0,.414-.92,13.023,13.023,0,0,0,.321-1.886q.139-1.218.207-3.243t.115-5.014q.046-2.99.046-7.222,0-3.451-.092-5.75t-.276-3.7a6.857,6.857,0,0,0-.482-2q-.3-.6-.76-.6-.23,0-.621.023t-.8.023q-.414,0-.759.022c-.23.015-.376.023-.437.023s-.107-.061-.138-.185a1.509,1.509,0,0,1-.046-.368,2.9,2.9,0,0,1,.046-.46.3.3,0,0,1,.321-.275h4.094q1.979,0,3.266-.093a19.577,19.577,0,0,0,2.438-.321q.69-.139.6.46-.047.275-.093.92t-.114,1.38q-.069.736-.115,1.4c-.031.445-.046.775-.046.989a11.033,11.033,0,0,1,1.817-1.564,19.722,19.722,0,0,1,2.966-1.748,24.2,24.2,0,0,1,3.726-1.426,14.379,14.379,0,0,1,4.094-.6,17.485,17.485,0,0,1,5.106.713,11.35,11.35,0,0,1,4.026,2.116,9.581,9.581,0,0,1,2.622,3.542,12.4,12.4,0,0,1,.943,5.037,21.525,21.525,0,0,1-.368,3.887q-.369,2-.92,3.979t-1.2,3.84q-.644,1.863-1.2,3.451t-.92,2.829a7.335,7.335,0,0,0-.368,1.932.91.91,0,0,0,.482.8,3.4,3.4,0,0,0,1.679.3,10.624,10.624,0,0,0,1.081-.046,1.56,1.56,0,0,0,.759-.275q.185-.092.368.184a.562.562,0,0,1,.093.322,1.389,1.389,0,0,1-.254.643.7.7,0,0,1-.574.414h-1.61q-1.242,0-2.691.023t-2.852.023h-2.139q-.69,0-.69-.461a.754.754,0,0,1,.047-.345.237.237,0,0,1,.16-.092,1.424,1.424,0,0,0,.276-.092,1.648,1.648,0,0,0,.437-.346,11.071,11.071,0,0,0,1.058-2.6,37.7,37.7,0,0,0,.989-4.255q.437-2.438.736-5.29a54.771,54.771,0,0,0,.3-5.7,17.927,17.927,0,0,0-.69-5.243,11.445,11.445,0,0,0-1.885-3.773,7.915,7.915,0,0,0-2.76-2.277,7.49,7.49,0,0,0-3.312-.759,9.083,9.083,0,0,0-3.1.575,11.386,11.386,0,0,0-2.921,1.564,11.367,11.367,0,0,0-2.323,2.3,6.609,6.609,0,0,0-1.266,2.737,17.254,17.254,0,0,0-.23,2.255q-.092,1.609-.138,3.726t-.068,4.462q-.024,2.345-.023,4.461,0,1.335.046,2.553t.138,2.208q.092.99.184,1.679a3.557,3.557,0,0,0,.184.874,1.364,1.364,0,0,0,.414.575,2.95,2.95,0,0,0,1.288.161,4.249,4.249,0,0,0,.714-.046,3.546,3.546,0,0,1,.621-.046.392.392,0,0,1,.414.253,1.313,1.313,0,0,1,.092.436.532.532,0,0,1-.161.276.5.5,0,0,1-.391.184q-.275,0-.942-.022t-1.495-.023q-.829,0-1.633-.022t-1.265-.023q-1.2,0-2.462.023t-2.369.046q-1.1.023-1.955.069-.676.036-.989.073,0,.01,0,.019a.285.285,0,0,1-.322.322,6.066,6.066,0,0,1-.644-.047q-.413-.046-1.149-.068t-1.909-.069q-1.173-.046-2.967-.046-.6,0-1.311.046t-1.357.092q-.644.046-1.149.093t-.69.046c-.092,0-.168-.061-.23-.185a.911.911,0,0,1-.092-.414.991.991,0,0,1,.069-.391.253.253,0,0,1,.253-.161q.415-.046,1.1-.069t.689-.345a16.353,16.353,0,0,0-.229-1.656q-.231-1.38-.575-3.312t-.736-4.117q-.391-2.184-.759-4.071-.829-.138-2.094-.23t-2.645-.093q-1.609,0-3.059.139a7.5,7.5,0,0,0-2.277.506q-.229,1.013-.506,2.139t-.529,2.277q-.253,1.149-.437,2.277a13.066,13.066,0,0,0-.184,2.092,3.806,3.806,0,0,0,.805,2.714,2.678,2.678,0,0,0,2,.828,9.259,9.259,0,0,0,1.495-.069,2.4,2.4,0,0,1,.529-.069q.369,0,.368.185c0,.061-.069.161-.207.3a4.25,4.25,0,0,1-.529.437q-.413.321-1.081.8a2.87,2.87,0,0,1-1.725.483q-.138,0-.713-.046l-1.4-.115q-.828-.069-1.748-.115t-1.748-.046q-1.15,0-1.863.046t-1.127.092q-.264.029-.425.058a1.34,1.34,0,0,1,.425,1,1.43,1.43,0,0,1-.115.482.464.464,0,0,1-.483.3A1.931,1.931,0,0,1-1628.561,278.934Zm14.9-32.683a14.766,14.766,0,0,0-1.081,2.024q-.575,1.265-1.127,2.9t-1.081,3.358q-.529,1.725-.966,3.427t-.714,3.082q.737-.184,1.863-.391l2.392-.437q1.265-.23,2.53-.436t2.323-.346q-.23-1.149-.528-2.851t-.621-3.473q-.323-1.771-.621-3.335t-.483-2.392a6,6,0,0,0-.483-1.563q-.207-.323-.437-.322Q-1613.151,245.492-1613.658,246.251Zm124.062,31.533a4.118,4.118,0,0,1-1.471-1.15q-.369.046-.989.115t-1.265.115q-.644.046-1.2.092c-.368.031-.628.046-.782.046a2.134,2.134,0,0,1-.6-.069q-.23-.069-.345-.46a5.587,5.587,0,0,1-.161-1.173q-.046-.782-.046-2.209a16.219,16.219,0,0,1-4.531,2.967,16.309,16.309,0,0,1-6.555,1.265,17.144,17.144,0,0,1-5.474-1.128,12.97,12.97,0,0,1-4.394-2.805,12.632,12.632,0,0,1-2.921-4.531,16.679,16.679,0,0,1-1.012-6.3,16.521,16.521,0,0,1,.921-4.945,32.628,32.628,0,0,1,2.093-4.9,35.724,35.724,0,0,1,2.507-4.094,16.26,16.26,0,0,1,2.116-2.53q-1.38.046-2.737.115a18.422,18.422,0,0,0-2.461.276,8.151,8.151,0,0,0-1.863.552,1.581,1.581,0,0,0-.942.943c0,.061-.078.092-.23.092a.517.517,0,0,1-.23-.046q0-.506.023-.989t.115-1.127q.092-.6.161-1.035a3.7,3.7,0,0,1,.3-.943q.183-.46.483-.483a3.331,3.331,0,0,1,.8.069q.415.046,1.426.138t2.254.161l2.53.139q1.288.069,2.254.068,1.012,0,1.5-.046t1.356-.138v.874a4.713,4.713,0,0,0-1.633,1.334,13.808,13.808,0,0,0-1.932,2.967,24.129,24.129,0,0,0-1.656,4.439,22.8,22.8,0,0,0-.759,5.75,25.721,25.721,0,0,0,.69,6.6,15.762,15.762,0,0,0,2.069,4.922,9.34,9.34,0,0,0,3.244,3.059,8.534,8.534,0,0,0,4.209,1.058,9.115,9.115,0,0,0,4.071-.943,9.07,9.07,0,0,0,2.553-1.817q1.7-1.84,2.184-5.957a88.165,88.165,0,0,0,.483-10.051q0-4.554-.092-7.176a8.69,8.69,0,0,0-.46-3.22q-.046-.184-.644-.3a8.75,8.75,0,0,0-1.38-.138q-.781-.023-1.564-.023a10.3,10.3,0,0,0-1.15.046.369.369,0,0,1-.46-.253,1.95,1.95,0,0,1-.092-.575.8.8,0,0,1,.161-.46.879.879,0,0,1,.391-.322q2.024.046,4.393.184t4.347.138q1.611,0,3.059-.069t2.967-.16q.414.092.414.643,0,.6-.414.69a3.379,3.379,0,0,1-.989.046q-.575-.046-1.173-.046a1.414,1.414,0,0,0-.967.322,10.643,10.643,0,0,0-.46,2.184q-.229,1.633-.391,4.048t-.276,5.52q-.115,3.105-.115,6.647,0,3.864.069,6.279t.253,3.818a7.576,7.576,0,0,0,.46,2,1.73,1.73,0,0,0,.69.828q.506.231.989.414a3.143,3.143,0,0,0,1.127.185c.184,0,.383-.008.6-.023s.322.054.322.207q0,.875-1.242.874A5.228,5.228,0,0,1-1489.6,277.784Zm-59.224-1.472a15.574,15.574,0,0,1-5.405-3.105,14.718,14.718,0,0,1-3.634-4.99,16.11,16.11,0,0,1-1.334-6.717,17.543,17.543,0,0,1,1.564-7.5,18.286,18.286,0,0,1,4.14-5.75,18.684,18.684,0,0,1,5.888-3.7,18.463,18.463,0,0,1,6.854-1.311,20.961,20.961,0,0,1,6.439.989,16.494,16.494,0,0,1,5.428,2.9,13.836,13.836,0,0,1,3.726,4.738,14.559,14.559,0,0,1,1.381,6.463,18.114,18.114,0,0,1-1.381,6.853,20.734,20.734,0,0,1-3.818,6.118,19.313,19.313,0,0,1-5.8,4.393,16.219,16.219,0,0,1-7.36,1.679A20.612,20.612,0,0,1-1548.82,276.312Zm2.759-30.383a10.418,10.418,0,0,0-3.4,3.1,14.68,14.68,0,0,0-2.139,4.715,22.9,22.9,0,0,0-.735,5.957,23.355,23.355,0,0,0,.966,7.107,15.119,15.119,0,0,0,2.553,4.968,10.315,10.315,0,0,0,3.657,2.921,10,10,0,0,0,4.278.967,7.962,7.962,0,0,0,4.462-1.265,10.79,10.79,0,0,0,3.243-3.358,15.874,15.874,0,0,0,1.956-4.83,24.923,24.923,0,0,0,.644-5.727,22.847,22.847,0,0,0-.874-6.555,15.943,15.943,0,0,0-2.369-4.946,10.628,10.628,0,0,0-3.5-3.1,8.738,8.738,0,0,0-4.208-1.081A9.081,9.081,0,0,0-1546.061,245.929Zm-319.787-44.514c-7.277-6.143-8.162-16.346-1.975-22.787s17.1-6.684,24.38-.541,8.161,16.345,1.974,22.786a16.788,16.788,0,0,1-12.193,4.995A18.939,18.939,0,0,1-1865.848,201.415Z" transform="translate(2585.173 564)" fill="#02020d"/>
  </g>
</svg>
